<?xml version="1.0" encoding="utf-8"?>
<svg version="1.1" id="Layer_1" xmlns="http://www.w3.org/2000/svg" xmlns:xlink="http://www.w3.org/1999/xlink" x="0px" y="0px"
	 viewBox="0 0 2312.571 1649.453" enable-background="new 0 0 2312.571 1649.453" xml:space="preserve">
<g>
	<path d="M2197.72,188.833c1.192-6.632-1.91-13.035-7.458-16.688c-58.26-41.423-312.558-175.451-351.278-141.752
		c14.762,1.864,29.692,5.181,42.406,13.31c-22.128-0.963-44.775,1.131-65.696,8.68c-0.183,0.795-0.565,2.369-0.749,3.163
		c11.935-0.504,24.053-0.352,35.682,2.766c-27.125-1.131-54.616,5.593-77.768,19.866c-1.727,1.009-2.476,2.567-2.246,4.646
		c18.46-2.002,37.027-2.46,55.549-0.993c-42.1,5.494-72.643,1.966-91.781,31.205c7.503-2.124,15.129-3.759,22.922-4.355
		c-23.396,5.792-45.066,18.965-59.583,38.372c12.485-3.362,25.276-5.196,38.158-6.006c-22.174,4.462-44.133,13.188-61.111,28.47
		c0.657,0.52,1.956,1.559,2.598,2.078c10.514-3.423,21.578-5.18,32.626-3.927c-20.416,4.554-39.885,13.524-56.175,26.712
		c-1.605,1.146-2.262,2.751-1.971,4.798c9.812-1.787,15.729-7.1,46.013-9.49c-12.088,4.462-24.389,8.481-35.927,14.304
		c-53.373,25.744-62.089,59.908-73.581,71.762c-28.8,30.972-85.571,66.052-128.304,84.079
		c-74.248,30.329-50.59-3.976-237.919,35.774c-167.046,36.811-208.94,72.04-239.86,82.261
		c-53.224,18.448-120.224,32.886-168.953,80.29c-4.63,4.615-9.582,9.704-10.804,16.382c-0.504,3.698,2.674,6.663,6.067,7.366
		c6.648,1.543,13.448,0.076,20.111-0.596C741.398,636.584,659.534,700.187,583.05,769.58c-2.109,1.956-4.34,3.882-7.03,4.997
		c-75.384,32.336-147.575,72.038-215.379,118.173c0.382,0.779,1.146,2.369,1.528,3.148c23.763-9.306,48.427-16.688,73.718-20.401
		c-20.972,10.193-75.412,27.137-192.457,117.836c38.54,5.624,77.768,6.495,116.599,4.172c13.815-10.132,27.843-20.355,43.537-27.4
		c-10.789,7.809-22.265,15.343-29.906,26.544c1.421,0.092,4.264,0.29,5.685,0.382c-131.868,63.544-251.95,117.793-335.401,196.094
		c-34.932,34.803-16.71,57.048,10.819,49.604c-14.001,38.19,41.727,69.407,90.345,48.091
		c-15.038,35.132,14.488,60.017,67.514,35.316c-32.628,55.304,36.802,76.227,74.865,52.615c3.454-2.69,7.977-1.696,12.042-2.17
		c14.487-0.963,28.057-6.938,40.496-14.105c-2.139,6.816-4.783,14.349-1.788,21.364c8.325,20.777,56.301,16.638,90.742-7.457
		c-6.434,49.11,63.991,33.869,106.65-4.126c-0.52,5.975-0.734,12.531,2.934,17.65c14.055,20.671,61.358,11.338,87.227-4.692
		c14.777-8.863,24.221-23.717,35.301-36.447c59.552-74.59,108.331-156.988,155.246-239.876c7.992,0.321,16,0,23.992,0.306
		c-18.923,18.527-5.108,45.066,68.477,35.453c-10.211,14.911-0.924,23.507,17.1,25.612c19.79,1.65,39.32-3.117,58.391-7.809
		c-2.839,16.074-6.474,44.126,7.931,53.333c4.722,3.24,10.636,2.048,15.817,0.886c-9.826,22.8-17.467,47.679-14.701,72.771
		c1.391,10.804,7.014,22.938,18.323,26.131c10.85,3.179,21.501-2.002,31.098-6.556c-2.511,33.732,22.045,56.712,54.326,44.668
		c4.283,8.566,11.333,24.401,45.417,23.198c29.228,78.934,44.84,115.879,31.388,140.927c-9.419,22.26-64.515,41.471-99.804,42.544
		c-9.521,0.565-16.596,8.16-20.63,16.214c-29.756,3.598-56.983,19.961-60.897,48.443c15.832-11.538,34.46-18.491,53.562-22.296
		c3.24,5.899,9.841,8.008,15.939,9.582c56.119,16.385,107.071-32.139,161.741-22.54c25.459,5.333,51.361,0.031,76.698-3.347
		c62.271-8.125,55.798,8.57,94.639,9.734c9.627,0.061,19.866-1.406,27.507-7.794c12.348,6.449,27.125,5.486,39.778,0.443
		c9.773,3.161,17.831,19.289,19.041,11.308c-0.917-7.182-5.364-13.142-7.809-19.713c1.605-2.949,3.423-5.761,5.028-8.695
		c5.593,2.139,11.477,3.362,17.161,5.257c5.761,3.805,4.967,13.86,11.981,15.985c0.076-4.707-0.458-9.383-1.009-14.029
		c7.106,0.871,14.288,0.092,21.257-1.543c3.194,3.714,4.676,9.826,10.025,10.835c-0.076-4.921-1.88-9.551-3.148-14.227
		c11.583,0.351,25.551,0.856,33.314-9.521c11.492,3.454,22.617,8.955,31.236,17.452c2.445,2.078,4.6,5.777,8.39,4.447
		c-5.379-16.107-16.626-29.356-28.882-40.741c25.828,4.601,40.751,20.292,47.174,22.189c0.107-8.13-6.433-14.288-9.811-21.226
		c3.927,2.827,7.656,5.929,11.751,8.573c-9.337-38.862-33.271-52.404-72.649-49.482c-14.55,1.03-5.433-20.597-56.863-7.045
		c-9.337,2.888-19.163,3.133-28.76,4.401c-132.302,14.089-145.617-46.868-176.457-140.148c5.181-4.325,10.116-8.97,14.625-14.013
		c25.109,6.453,20.996-14.522,85.455-108.102c15.572-22.021,31.068-44.194,47.908-65.252
		c128.871-88.652,365.95-212.811,457.883-475.915c30.171-85.211,6.825-116.189,33.62-169.473
		c19.912-40.344,34.598-83.132,56.175-122.666c18.729-35.77,68.446-65.986,106.284-80.335
		c53.309-20.135,94.113-15.485,102.616-9.826c18.567,11.324,43.171,10.376,59.14,26.33c6.169,4.585,1.296,24.277,0.581,31.45
		c4.524-0.183,6.586-4.63,9.184-7.671C2318.875,300.233,2266.842,238.827,2197.72,188.833z M644.482,720.878
		c61.31-51.255,125.707-98.918,193.71-140.912c4.859-3.041,10.667-3.805,16.076-5.41c-9.903,8.451-19.897,19.729-18.567,33.727
		c-63.266,31.45-122.818,70.723-175.723,117.607c0.81,0.871,1.65,1.742,2.506,2.598c52.722-46.349,111.647-85.715,174.638-116.706
		c8.894,13.096,26.239,13.784,40.527,13.264c-19.266,11.209-80.875,45.803-86.769,67.254c-1.177,3.545,1.345,6.663,2.934,9.597
		c-7.06,5.135-13.326,11.461-20.691,16.107c-41.153,11.568-83.972,19.606-126.883,17.085c-3.331-0.245-8.573-0.321-9.093-4.646
		C637.88,726.211,641.38,723.445,644.482,720.878z M633.082,730.566c1.268,4.539,5.211,7.839,10.009,7.824
		c41.596,3.24,83.055-4.493,123.261-14.487c-13.57,13.31-28.103,25.872-39.167,41.474c-2.139,2.888-3.973,6.602-7.931,7.198
		c-51.331,16.382-104.526,27.706-158.379,30.991C567.503,787.11,575.396,779.395,633.082,730.566z M717.329,798.31
		c13.921,19.071,70.854-8.239,92.026-18.506c-4.458,19.005,0,22.744,11.66,31.113c-69.119,20.034-140.728,33.008-212.858,32.871
		c-41.134-1.253-51.327-19.451-48.397-36.416c36.584-2.262,72.771-8.435,108.484-16.519c-4.661,7.121-11.217,12.577-17.987,17.559
		c0.138,0.81,0.428,2.445,0.565,3.255c9.368-4.997,17.329-12.898,22.326-22.265c15.755-3.759,31.297-8.344,46.731-13.264
		C717.207,783.044,713.478,791.143,717.329,798.31z M967,702.8c-2.491,4.646-6.311,8.955-9.857,12.974
		c-22.8,10.926-45.57,22.265-66.674,36.279c0.061,0.856,0.183,2.567,0.244,3.423c0,0,31.835-19.376,64.198-34.491
		c-2.598,6.159-3.897,12.775-3.362,19.484c-14.976,8.818-25.138,24.573-28.928,41.306c-7.32,4.05-15.007,7.396-22.158,11.767
		c-6.25,3.408-11.66,8.558-18.781,10.193c-18.46,5.226-38.632,10.239-57.459,3.958c-8.115-2.384-14.411-10.544-12.989-19.179
		c4.577-22.312,2.159-1.555,76.561-56.557c28.454-20.737,55.014-43.965,83.667-64.443C966.404,678.426,963.073,690.972,967,702.8z
		 M1144.97,739.002c3.286,7.931,11.171,11.874,19.194,13.402c-17.98,5.299-37.791,14.988-25.795,29.509
		c-19.651,8.242-46.5,29.932-50.888,44.867c-1.712,5.44,3.713,8.924,7.152,12.027c-67.407,14.884-136.404,22.831-205.461,22.617
		c-27.841-0.232-54.377-33.537,35.346-76.362c21.02,9.668,76.891,8.141,115.835-16.611c5.318-3.179,9.719-7.58,14.762-11.125
		C1085.876,757.462,1116.653,750.983,1144.97,739.002z M1047.107,751.869c6.319-22.849,47.696-74.024,106.543-80.855
		c4.279-1.07,7.916,1.91,11.675,3.408c11.079,5.318,23.029,8.512,35.132,10.468c-19.299,11.964-50.564,29.368-54.846,49.94
		C1109.282,750.764,1062.791,757.087,1047.107,751.869z M881.255,887.631c-44.576,14.777-90.803,24.558-137.504,29.387
		c10.957-9.826,21.455-20.279,29.982-32.321c-0.611-0.397-1.864-1.161-2.491-1.543c-3.929,3.202-20.012,24.953-35.331,34.689
		c-10.407,1.543-20.966,1.849-31.434,2.888c13.264-10.483,26.346-21.746,35.606-36.065c-5.545-5.546-2.071,6.272-39.61,34.338
		c-1.559,1.177-3.301,2.231-5.318,2.216c-72.679,3.861-92.57,2.964-107.338-10.025c-6.923-5.914-11.293-14.961-10.529-24.16
		c95.464,0.84,191.586-12.775,281.64-45.065c0.993,12.913,12.913,20.982,24.756,22.938
		C875.979,875.635,877.476,878.221,881.255,887.631z M931.853,922.687c-0.458,9.857,3.255,19.836,10.682,26.483
		c7.641,7.656,18.2,10.835,28.286,13.86c-53.531,11.614-107.888,19.347-162.489,23.564c12.072-8.527,25.444-17.559,31.343-31.648
		c-3.958-0.718-5.318,3.331-7.412,5.776c-7.534,10.3-18.17,17.742-28.821,24.512c-3.117,2.369-7.167,2.063-10.85,2.353
		c-48.641,2.537-97.787,2.43-145.909-5.914c-62.616-12.566-30.545-55.996-18.613-55.258c86.142,0.29,173.492-7.809,255.417-35.896
		c15.45,13.295,36.752,15.878,56.404,15.572c-2.873,3.958-5.242,8.252-7.121,12.776c-74.788,15.297-150.768,25.826-227.161,27.369
		c-0.031,0.886-0.092,2.644-0.122,3.515C781.604,948.268,857.339,937.938,931.853,922.687z M709.673,1018.136
		c2.812,0.81,5.654,1.543,8.527,2.201c-12.286,5.624-26.422,12.271-31.664,25.658c-2.659,7.35,5.838,11.339,11.477,13.112
		c-3.347,2.934-10.04,9.75-3.545,12.852c19.591,5.899,40.894,3.148,60.21-2.644c20.766,15.476,61.295-1.936,84.538-13.371
		c-0.443-0.795-1.329-2.369-1.788-3.163c-21.574,10.448-57.413,26.528-78.517,15.129c9.016-4.493,18.216-8.986,25.566-16.015
		c5.914-6.724,15.251-8.008,22.617-12.562c22.538,11.355,91.927-12.043,115.773-21.501c-3.958,4.08-8.069,8.038-11.981,12.179
		c48.263-7.293,82.159-38.12,134.906-57.81c0.352-0.672,1.039-2.032,1.375-2.705c-19.005-0.695-80.206,43.675-124.729,54.479
		c3.224-4.355,9.307-7.152,9.918-12.989c-1.987,0.138-3.897,0.55-5.731,1.268c-32.507,13.708-97.272,33.637-117.072,24.038
		c9.027-15.06,43.251-35.561,81.023-41.092c-0.29-0.764-0.886-2.292-1.192-3.056c-34.682,3.848-74.545,25.961-83.3,43.323
		c-32.026,17.982-98.704,31.756-117.072,14.09c6.064-18.121,30.752-26.685,49.161-31.77c0.031-0.81,0.061-2.43,0.076-3.224
		c-8.604,1.009-17.742,3.713-26.132,0.351c9.017-11.101,39.124-21.399,48.764-22.51c69.394-1.803,138.512-10.743,206.424-24.894
		c43.009-8.416,3.308,1.297,60.974-10.667c16.565-3.499,32.963-7.778,49.512-11.339c-30.868,32.471-21.995,25.686-91.384,63.816
		c-233.995,126.283-248.463,54.362-358.552,72.481c0.756-0.74,91.134-88.722,92.255-89.703c8.497,0.718,17.054,0.443,25.566,0.275
		c-11.477,4.523-23.564,8.558-33.176,16.565C709.52,1011.091,708.879,1014.743,709.673,1018.136z M779.648,1051.236
		c-23.507,19.312-60.283,24.633-84.584,17.314C706.802,1049.397,705.294,1072.625,779.648,1051.236z M577.289,883.459
		c3.377-17.207,17.773-31.19,34.246-36.034c69.99-0.581,139.536-12.546,206.653-32.03c7.075-3.362,14.655-2.002,22.097-1.268
		c13.081,0.336,25.994-2.43,38.571-5.761c-8.863,8.038-17.513,17.391-19.774,29.585
		C769.103,870.699,672.814,884.345,577.289,883.459z M377.176,886.24c61.264-40.894,126.379-75.995,193.832-105.55
		c-27.185,31.32-18.465,62.333,31.174,66.49C562.954,868.24,467.673,856.49,377.176,886.24z M462.936,871.371
		c41.673-4.248,83.804-5.547,124.851-14.594c-13.487,16.124-13.448,20.708-14.487,35.132
		c-114.354,20.874-207.364,42.305-305.266,87.823C326.671,929.65,439.15,872.618,462.936,871.371z M431.792,956.795
		c-0.183-0.795-0.535-2.399-0.718-3.209c-25.459,9.322-49.299,22.877-70.846,39.289c-4.553,4.266-72.361,2.499-105.947-1.574
		c85.836-49.491,228.252-78.919,319.691-96.03c5.579,20.605,24.015,29.541,45.234,30.93c-13.814,12.422-17.98,24.664-8.924,40.863
		c-76.362,7.305-152.022,21.165-228.659,25.75C395.728,977.517,414.769,968.287,431.792,956.795z M55.406,1238.252
		c-19.177,9.422-47.894-7.174-4.172-46.915c85.266-77.735,210.557-133.493,336.257-194.168c3.487-1.79,2.278-1.007,40.481-4.523
		C295.572,1061.673,184.016,1163.112,55.406,1238.252z M58.676,1242.852c1.406-4.523,6.388-5.853,9.902-8.267
		c127.066-75.805,230.716-171.489,366.759-241.511c2.476-1.345,5.257-1.864,8.038-2.139c36.386-3.851,72.603-9.291,108.943-13.601
		c-78.868,69.806-158.929,138.497-243.742,201.045c1.039-7.855,2.827-15.633,3.347-23.549c-0.81,0.015-2.414,0.061-3.209,0.092
		c-1.91,8.772-2.277,17.864-4.554,26.559c-3.24,3.24-7.198,5.639-10.987,8.176c1.406-13.142,3.499-26.193,5.165-39.289
		c-0.856,0.046-2.552,0.153-3.392,0.199c-2.735,14.044-3.316,28.516-6.449,42.452c-6.449,5.395-13.57,9.933-20.416,14.793
		c1.07-10.514,2.888-20.951,4.141-31.434c-0.856,0.061-2.567,0.168-3.423,0.229c-2.063,11.415-3.148,22.984-5.012,34.429
		c-36.034,25.062-72.649,49.329-110.517,71.533C96.667,1313.804,43.557,1274.957,58.676,1242.852z M153.377,1326.534
		c109.381-72.724,163.676-115.868,178.825-126.516c-0.596,5.547-1.436,11.064-2.323,16.581c0.871,0.168,2.613,0.504,3.484,0.672
		c1.177-6.724,1.864-13.524,3.179-20.218c7.885-7.549,17.421-13.203,25.581-20.477c-0.688-0.52-2.063-1.559-2.751-2.094
		c-68.064,52.126-137.305,102.876-209.343,149.424c-8.405-10.514-6.556-26.666,2.155-36.263
		c147.116-87.212,278.63-197.652,406.201-310.828c11.935-2.323,24.176-3.041,36.233-4.584
		c-70.076,72.662-211.636,183.517-215.945,187.353c2.674,3.79,5.99-0.55,8.466-2.231
		c233.055-184.194,195.937-185.995,226.397-186.757c8.008,7.366,18.277,11.477,28.714,13.983
		c-82.99,84.235-189.642,178.716-287.906,247.791c1.589-11.797,3.927-23.473,5.379-35.285c-0.856,0.168-2.567,0.474-3.408,0.642
		c-2.72,12.546-3.423,25.566-6.678,37.975c-14.395,10.499-29.203,20.477-44.179,30.151c2.201-12.424,4.875-24.787,6.632-37.287
		c-0.81,0.107-2.43,0.306-3.24,0.413c-8.732,37.574-4.697,37.995-10.285,41.535C223.403,1319.013,181.404,1345.494,153.377,1326.534
		z M207.397,1352.375c0.458-11.446,6.051-22.556,13.876-30.716c156.423-88.259,297.901-207.9,425.44-336.257
		c22.296,3.683,44.836,5.792,67.407,6.663c-5.746,6.534-115.4,114.505-197.989,189.125c-4.325-7.947-7.763-16.382-12.409-24.13
		c-0.749-0.076-2.246-0.245-3.01-0.336c1.543,12.011,0.565,24.298,3.515,36.126c-6.403,5.303-12.348,11.11-18.735,16.412
		c-4.493-12.164-8.008-24.695-12.577-36.829c-0.779-0.229-2.338-0.703-3.118-0.932c3.316,17.788-2.705,35.377-1.605,53.21
		c-46.196,41.001-92.591,81.879-141.279,119.93c2.705-14.839,5.914-29.585,8.13-44.485c-0.825,0.107-2.46,0.336-3.27,0.458
		c-3.255,15.45-6.143,31.022-8.71,46.624c-6.923,6.586-15.007,11.935-22.709,17.604c6.018-19.023,18.062-49.333,19.79-58.712
		c-0.81,0.229-2.399,0.688-3.209,0.902c-7.534,20.34-14.838,40.817-21.578,61.447C262.1,1398.912,206.887,1383.36,207.397,1352.375z
		 M295.908,1373.311c84.182-63.69,145.637-120.619,175.998-146.811c-0.978-12.791,1.299-25.429,2.552-38.112
		c3.469,8.894,6.006,18.124,9.368,27.079c8.267-6.77,16.107-14.044,24.13-21.089c-1.07-8.466-3.24-17.085-2.43-25.795
		c3.393,6.097,6.311,12.47,9.551,18.659c83.155-75.673,84.875-80.362,95.22-87.854c-12.561,14.365-26.04,27.95-38.815,42.131
		C523.545,1193.435,366.471,1370.289,295.908,1373.311z M412.981,1381.854c-15.679,7.794-33.253,12.76-50.872,11.614
		c-35.373-3.513-18.361-33.99-12.042-37.853c48.672-33.39,92.362-73.443,133.775-115.346
		c66.795-68.046,141.16-155.019,148.812-155.521c17.253-2.644,34.812-2.537,52.202-1.345
		c-71.9,92.148-145.053,184.067-230.141,264.555c-0.978-12.745-1.406-25.505-2.674-38.204c-0.825-0.122-2.491-0.382-3.316-0.504
		c0.703,13.922,1.727,27.843,2.69,41.765C439.28,1362.064,427.896,1374.488,412.981,1381.854z M441.084,1400.146
		c-10.575-5.211-11.385-20.432-5.639-29.371c95.373-85.684,175.127-186.665,254.164-287.126c7.564,0.642,15.159,1.207,22.724,2.063
		c-24.863,42.819-57.26,80.58-88.358,118.906c0.321,1.192,0.978,2.231,1.971,3.148c32.244-38.938,64.855-77.982,90.65-121.626
		c17.253,1.818,34.521,3.469,51.881,3.866c-69.715,94.96-145.114,185.855-226.932,270.653
		C514.562,1391.261,465.834,1412.178,441.084,1400.146z M642.495,1365.38c-23.951,30.494-75.198,39.595-95.097,27.904
		c-11.553-6.479-11.003-24.726-1.085-32.428c81.482-84.324,156.255-174.99,225.694-269.415c4.768-3.438,11.706-1.177,17.329-2.674
		c-2.705,2.69-6.174,5.624-5.822,9.841c1.556,8.094,19.435,9.132,28.409,10.284C805.541,1120.931,724.798,1268.784,642.495,1365.38z
		 M786.417,1097.539c4.08-5.547,9.918-10.239,16.901-11.217c85.76-18.261,163.315-61.126,238.959-103.823
		c-47.006,57.809-38.652,60.638-42.727,72.16C901.936,1111.483,803.724,1113.692,786.417,1097.539z M847.452,1137.623
		c-21.123-9.037-8.851-27.765,5.211-29.264c52.248-4.768,102.066-24.191,147.574-49.65c5.83,6.762,6.935,10.56,29.234,1.589
		c-7.885,13.555-16.015,27.018-22.693,41.23c-1.192,2.277-2.032,4.997-4.325,6.449
		C947.477,1144.516,873.416,1148.781,847.452,1137.623z M921.354,1143.063c28.195-4.508,55.289-14.808,79.678-29.57
		c-6.174,14.517-11.69,29.341-15.465,44.683C892.594,1183.355,900.752,1146.236,921.354,1143.063z M1025.789,1189.32
		c2.078,8.038,5.012,17.391,13.249,21.089c26.91,11.778,62.507-38.524,78.853-63.052c2.066,20.931,9.923,25.795,20.905,30.93
		c-12.806,16.489-23.855,34.704-29.203,55.029c-7.182,11.37-15.969,21.685-24.557,32.03
		C995.771,1367.016,969.708,1288.304,1025.789,1189.32z M1095.702,1350.419c-35.56,11.412-50.246-16.269-49.405-36.309
		c0.428-2.995-1.054-7.136,1.895-9.154c23.931-16.886,42.666-39.839,60.164-63.067c-1.268,12.852,1.849,26.896,11.797,35.79
		C1101.601,1296.597,1091.836,1324.043,1095.702,1350.419z M1424.822,1585.466c-0.122-0.795-0.367-2.369-0.489-3.163
		c10.957-1.421,22.8-0.672,32.718,4.554C1446.599,1590.417,1434.832,1590.356,1424.822,1585.466z M1470.529,1578.131
		c-11.064-16.428-29.004-29.57-49.405-29.86c-5.287,0.749-7.732-4.707-11.797-6.892c-16.114-9.987-32.171-1.058-59.782-4.63
		c-5.669,8.237-9.673,18.048-8.053,28.24c0.841-0.046,2.506-0.168,3.332-0.214c-0.886-8.313,1.559-16.611,6.158-23.503
		c2.353-0.886,4.905,0.031,7.366,0.046c20.463,1.581,36.331-7.612,54.021,6.938c-11.201,5.654-13.524,21.853-6.357,31.511
		c3.377,4.752,9.658,3.897,14.716,3.652c-5.926,12.003-35.57,11.49-57.337,2.598c-37.439-13.763-81.327,3.383-119.533,2.414
		c-12.898,0.031-25.398-4.417-38.326-3.454c-36.523,1.406-68.966,20.966-104.755,26.086c-15.722,2.515-37.333,0.735-50.49-8.008
		c1.016-16.649,8.302-39.683,28.393-39.488c36.971-0.821,40.049-18.17,56.618,8.894c0.565-0.672,1.696-2.017,2.277-2.69
		c-2.796-6.403-7.931-11.308-13.524-15.282c9.76-2.209,16.835-13.399,30.456,9.581c0.963,0.26,2.919,0.795,3.882,1.054
		c-2.354-7.839-7.992-14.349-15.114-18.246c59.479-29.384,44.325-58.926,2.827-170.619c13.066-3.591,24.176-12.088,32.886-22.265
		c3.973,7.778,12.882,9.872,20.951,9.796c0.26,0.841,0.795,2.521,1.054,3.362c-9.322,0.84-18.689,2.873-27.125,7.014
		c-0.076,0.825-0.214,2.445-0.29,3.255c9.368-2.934,18.72-6.266,28.622-6.846c1.437,3.744,2.858,7.503,4.309,11.263
		c-10.346,1.788-21.364,2.888-30.41,8.665c0.076,0.779,0.26,2.353,0.351,3.148c10.04-4.218,20.6-7.824,31.633-7.839
		c1.788,5.104,3.713,10.177,5.639,15.266c-14.197,0.321-28.653,3.072-41.092,10.193c-0.244,0.932-0.734,2.781-0.978,3.698
		c13.799-5.838,28.393-11.278,43.705-9.994c1.421,3.851,2.934,7.702,4.309,11.599c-9.612,0.688-19.01,3.286-27.492,7.885
		c0.351,0.825,1.07,2.476,1.421,3.316c8.573-4.355,17.88-7.412,27.568-7.549c2.14,5.012,4.233,10.071,6.174,15.19
		c-14.854,0.321-29.784,3.53-42.804,10.896c-0.015,0.932-0.046,2.827-0.076,3.759c13.708-6.984,28.806-11.293,44.301-11.094
		c2.246,4.462,4.279,9.031,6.204,13.646c-15.557,0.917-31.495,3.759-45.157,11.629v3.637c14.258-7.121,30.028-11.553,46.028-11.553
		c3.851,3.286,5.089,9.291,8.038,13.601c-15.587,1.589-31.022,5.165-45.509,11.156c-2.292,0.627-2.98,2.14-2.063,4.554
		c15.862-6.403,32.55-11.049,49.681-12.195c6.816,11.752,16.015,22.097,26.972,30.151c26.723,19.026,34.145,29.148,118.815,20.554
		c-0.351,3.224-0.535,6.449-0.734,9.704c0.84,0.031,2.537,0.076,3.377,0.107c0.321-3.347,0.764-6.678,1.421-9.948
		c5.563-0.993,11.217-1.375,16.84-1.941c-1.452,4.89-2.613,10.132-1.146,15.19c0.81,0.107,2.43,0.306,3.24,0.413
		c-0.596-5.379-0.168-10.789,1.895-15.801c13.234-0.458,27.66-1.329,39.274,6.22c-8.145,7.992-5.089,22.464,3.347,29.05
		c4.325,3.561,10.178,2.72,15.358,2.445C1475.022,1566.073,1475.573,1573.164,1470.529,1578.131z M1203.438,1363.149
		c3.499-0.443,7.075-1.987,10.621-1.314c5.654,9.49,14.869,16.458,25.734,18.781c16.29,40.878,32.794,81.971,42.605,124.988
		C1254.469,1488.366,1241.179,1467.657,1203.438,1363.149z M1478.461,1567.953c-0.107-1.62-0.168-3.24-0.199-4.829
		c4.875,1.513,9.276,4.371,12.47,8.39C1486.545,1570.597,1482.51,1569.237,1478.461,1567.953z M1505.295,1575.242
		c-1.375-5.119-2.705-10.239-3.744-15.419c8.97,2.277,16.81,7.671,23.045,14.426
		C1518.315,1576.129,1511.713,1575.884,1505.295,1575.242z M1538.976,1570.658c1.299-3.102,2.292-6.327,2.965-9.597
		c7.427,0.061,15.129,0.29,22.158,3.041C1557.268,1570.367,1547.717,1570.75,1538.976,1570.658z M1294.057,1376.367
		c-10.926-0.092-22.158,3.01-30.854,9.75c0.092,0.81,0.29,2.43,0.382,3.24c9.627-5.425,20.248-10.392,31.633-9.261
		c2.812,8.649,5.807,17.238,8.787,25.841c-8.42,0.015-16.749,1.742-24.435,5.165c-2.995,1.452-7.075,2.415-7.228,6.449
		c9.871-1.768,12.47-7.893,32.901-7.946c1.712,4.34,3.423,8.71,5.089,13.112c-11.538,0.581-23.641,2.476-33.253,9.291
		c0.061,0.795,0.168,2.384,0.229,3.179c10.392-5.272,21.792-9.291,33.635-8.619c2.858,1.987,3.117,6.266,4.814,9.245
		c-12.271,0.168-24.817,3.331-34.98,10.346c-0.214,0.825-0.627,2.46-0.825,3.286c7.369-1.876,17.544-10.697,37.272-10.01
		c2.735,5.685,5.593,11.308,8.542,16.917c-14.472-0.336-29.692,3.24-40.878,12.821c0.993,0.626,2.017,1.238,3.102,1.834
		c11.675-8.069,26.514-12.989,40.725-10.132c2.185,3.469,4.6,6.816,7.06,10.132c-14.411,0.275-29.111,3.851-41.413,11.4
		c0,0.749,0,2.246,0.015,2.995c12.21-4.997,24.603-10.453,38.051-10.774c2.598,0.183,5.838-0.871,7.87,1.345
		c71.716,69.395,184.532,0.364,216.128,38.464c-7.055,5.082-7.234,3.569-7.075,15.236c-5.318-1.528-10.758-2.583-16.229-3.301
		c-7.599-15.963-25.297-16.092-51.224-13.219c-0.183,0.841-0.565,2.537-0.749,3.377c22.731-1.46,37.753-3.735,47.816,8.833
		c-3.179,1.91-7.167,3.591-8.038,7.626c-2.766,12.088,5.257,25.811,17.604,28.531c-1.024,3.469-2.873,6.602-5.226,9.352
		c-12.45-27.759-22.931-33.709-48.947-40.343c-7.641-4.462-15.969-8.328-25.031-8.13c-7.947,0.474-15.052-4.05-22.968-4.034
		c-34.766-1.788-69.103,7.901-103.884,5.471c-24.683-1.432-45.218-11.158-45.952-16.917c-9.979-43.339-26.147-84.92-42.804-126.058
		c16.825-0.199,32.718-7.121,46.365-16.535C1291.368,1368.345,1292.606,1372.394,1294.057,1376.367z M1333.362,1330.354
		c-3.897,6.51-8.909,13.356-16.428,15.801c-3.53,1.452-6.693-0.963-9.551-2.644c-15.584,20.526-67.809,53.768-89.902,16.764
		c57.424-18.228,86.803-98.319,139.582-139.689c-4.08,8.833-7.656,18.048-8.649,27.828c24.481-25.597,52.951-47.113,82.612-66.307
		C1411.633,1209.483,1368.797,1264.944,1333.362,1330.354z M1427.298,1179.831c-4.309,3.545-13.387,1.88-13.096-4.753
		c1.537-24.486,55.108-62.198,75.843-75.72c23.496,5.095,66.077-18.776,85.913-32.749c-2.537,4.936-5.257,9.795-7.412,14.93
		c2.888-0.352,5.807-0.734,8.741-0.993C1528.156,1114.93,1477.376,1146.868,1427.298,1179.831z M1648.469,963.687
		c-10.865,12.409-20.065,27.4-21.822,44.088c-10.728,11.156-22.174,21.669-32.046,33.65c-5.578,6.143-9.734,13.631-16.443,18.705
		c-27.073,21.519-79.812,44.851-88.251,33.635c-1.556-14.286,31.968-44.43,43.553-55.381c5.685-6.006,14.456-6.632,21.44-10.483
		c36.706-17.574,66.903-46.059,93.416-76.454C1648.025,955.527,1648.01,959.622,1648.469,963.687z M1521.998,1032.913
		c3.652-13.31,14.655-22.602,23.962-32.091c1.971,2.812,3.897,6.938,8.038,6.479c24.028-1.385,61.507-50.734,75.583-70.204
		c11.736-0.963,22.846-5.333,32.825-11.461C1640.829,963.105,1565.441,1033.995,1521.998,1032.913z M1551.874,1003.022
		c-2.842-2.476-1.314-6.541-1.116-9.719c19.537-121.188,82.55-124.018,118.692-157.981c-7.152,31.148-42.857,76.015-64.381,97.604
		c6.296,2.72,13.096,3.729,19.881,4.447C1592.083,982.064,1561.585,1008.565,1551.874,1003.022z M1546.632,995.061
		c-5.405,5.344-32.591,29.704-26.972,40.175c3.01,1.956,6.953,0.917,10.376,1.36c-13.448,12.516-26.59,25.444-37.898,39.931
		c-38.323,18.68-80.919,22.076-89.382,11.171c-1.342-24.218,43.547-25.636,149.821-122.085
		C1550.147,975.332,1548.649,985.265,1546.632,995.061z M1488.302,1082.578c-1.574,4.646-2.262,9.521-1.605,14.426
		c-84.272,57.74-44.955,50.253-107.827,84.844c-9.811,4.936-20.004,10.315-31.19,10.835c-21.822,2.456-8.526-35.713,19.591-62.823
		c34.689,4.494,70.139-19.363,95.938-37.99C1471.553,1088.737,1480.126,1086.17,1488.302,1082.578z M1745.171,939.894
		c-47.617,50.185-101.699,93.814-158.042,133.806c-3.53,2.842-8.298,2.476-12.5,3.347c12.027-23.595,30.701-42.804,49.222-61.356
		c2.598-2.445,4.844-5.67,8.512-6.556c33.671-9.75,96.291-73.144,114.948-99.774c-1.742-1.345-3.499-1.482-4.63,0.52
		c-43.532,53.433-89.201,89.327-112.366,96.167c2.14-13.585,9.536-25.734,17.803-36.477c3.27-5.196,10.086-4.982,14.9-8.023
		c25.503-13.588,57.726-38.153,70.891-63.434c-0.657-0.626-1.941-1.88-2.583-2.506c-17.901,32.459-63.893,62.395-79.526,66.215
		c-2.572-15.066,16.839-37.473,24.588-49.894c0.061-0.718,0.183-2.155,0.229-2.873c-3.576,0.718-5.471,3.989-7.931,6.327
		c-14.686,14.349-36.783,21.914-56.955,16.26c60.589-66.699,56.835-89.436,66.276-106.421c16.52-33.344,47.327-55.763,70.83-83.697
		c0.856,3.469,0.917,7.992,4.523,9.918c4.065,2.537,8.619-0.199,12.638-1.421c-1.604,5.547-1.452,11.797-4.37,16.856
		c-74.082,90.349-93.156,171.943-46.548,135.212c12.791-10.911,23.656-23.809,34.567-36.538c-0.535,4.6-4.309,10.942,0.458,14.441
		c5.119,1.268,10.193-0.871,15.022-2.384C1751.776,899.927,1752.38,927.857,1745.171,939.894z M1813.862,700.935
		c0.29,11.094,1.895,22.189,6.082,32.535c-4.105,11.486-17.485,48.961-7.457,56.817c8.023,1.115,13.967-5.563,19.912-9.811
		c-2.216,8.435-2.674,17.207-3.958,25.75c-22.143,44.009-58.437,70.887-77.295,70.662c0.509-11.659,9.079-20.299,17.711-49.39
		c4.951-5.717,7.534,0.549,27.125-31.419c-0.794-0.443-2.384-1.345-3.178-1.788c-6.51,10.285-12.837,21.746-23.518,28.179
		c-4.982,2.155-6.923-4.309-7.381-7.962c-1.727-19.117,2.399-38.097,6.159-56.741c1.391-5.333,1.436-11.477,5.562-15.633
		c11.171-13.539,15.893-30.808,21.303-47.159c2.552,10.025,2.506,20.447,1.238,30.655
		C1802.92,718.035,1808.36,709.447,1813.862,700.935z M1765.128,827.116c-5.7,19.154-6.206,24.076-37.776,58.284
		c-6.236,6.326-27.146,27.76-32.642,20.722c-7.888-15.352,22.538-79.542,66.689-132.996
		C1754.346,814.594,1758.658,821.973,1765.128,827.116z M1825.43,839.815c-28.783,44.09-65.365,85.025-72.924,91.98
		c3.795-16.904,8.683-51.8,23.717-60.148c22.525-13.753,39.427-34.98,52.431-57.627
		C1827.982,822.608,1828.792,831.715,1825.43,839.815z M2017.29,368.469c-40.252,35.597-35.402,55.534-63.266,94.12
		c-7.985,11.071-26.613,34.148-40.282,35.683c-4.66-17.429,7.144-70.762,39.396-107.277c-0.428-0.703-1.299-2.078-1.727-2.781
		c-31.066,31.914-45.688,88.431-41.704,108.866c0.779,5.715,7.748,5.028,11.538,2.812c15.358-8.176,25.841-22.602,36.661-35.744
		c-9.2,23.58-19.729,46.685-30.67,69.516c-3.545,10.162-11.66,17.773-19.652,24.573c-15.546,11.297-21.252,3.699-23.35-15.74
		c-0.856-27.431,5.899-54.326,12.241-80.809c1.329-8.588,7.412-15.266,10.498-23.197c4.997-9.918,7.794-20.737,11.691-31.037
		c11.247-7.534,22.281-15.465,32.427-24.466c-0.856-0.871-1.696-1.742-2.506-2.598c-12.247,10.423-42.79,35.211-58.697,33.589
		c0.375-21.768,29.912-75.01,83.224-100.354c6.755-3.24,13.86-5.669,20.844-8.405c-5.914-3.133-12.088-5.761-18.078-8.726
		c13.753-11.247,32.168-13.264,49.253-14.548c-0.565-2.338-2.46-3.82-4.844-3.102c-18.109,1.207-37.73,4.967-50.811,18.613
		c4.936,2.521,9.979,4.814,15.007,7.182c-40.084,15.511-74.024,46.624-91.888,85.822c-4.087,9.814-11.402,27.182-0.718,27.064
		c7.809,0.413,14.716-3.897,21.623-6.907c-12.324,42.457-40.531,79.02-58.422,81.038c-11.204,0.931-9.045-30.129-7.198-41.856
		c6.955-40.84,27.547-66.308,30.181-73.55c-1.956-0.703-3.408-0.245-4.371,1.36c-9.566,14.212-17.207,29.723-22.816,45.906
		c-2.157,6.632-17.914,17.623-22.999,10.025c-11.634-19.476,19.681-117.32,109.554-137.489c0.122-0.81,0.397-2.43,0.52-3.24
		c-100.675,17.633-136.985,148.991-104.435,146.933c5.318-0.229,9.765-3.484,14.181-6.128c-4.202,16.183-6.602,33.238-3.698,49.864
		c1.039,4.05-1.788,7.641-2.873,11.37c-12.21,32.787-23.604,92.554-18.949,124.759c3.095,18.509,15.408,11.796,30.258,0.321
		c-5.119,30.579,2.231,61.967-5.028,92.332c21.135-9.979,32.81-31.923,40.695-52.859c4.095-12.103,8.344-24.42,9.841-37.134
		c-0.489-0.657-1.452-1.987-1.941-2.644c-5.166,15.709-13.194,65.054-43.369,85.501c4.243-27.206-2.478-83.191,6.678-92.82
		c12.027-14.242,20.997-31.006,26.743-48.718c9.995,5.57,15.429,6.681,34.49-12.286c-13.817,45.624,4.824,75.751-33.726,171.46
		c0.504-14.777-1.192-29.753,1.849-44.347c0.886-4.493,2.399-8.848,3.301-13.341c-0.779,0-2.323-0.015-3.087-0.015
		c-11.042,26.402-0.727,53.808-9.169,74.742c-13.555,31.755-30.044,62.181-48.458,91.354c1.635-17.253-0.168-35.071,5.501-51.759
		c1.91-7.381,8.374-12.088,12.454-18.2c11.415-15.908,20.768-33.727,25.245-52.89c-0.856,0.214-2.583,0.642-3.438,0.856
		c-13.78,44.389-42.434,74.578-57.016,78.257c-4.27-13.681,3.221-36.598,8.451-49.833c2.812,0.749,5.96,3.133,8.818,1.131
		c6.021-3.82,6.724-11.813,7.87-18.216c-6.927-0.219-1.718,9.471-11.202,16.153c-6.907-6.174-8.512-15.816-9.689-24.542
		c-2.583-22.403,2.491-44.653,8.573-66.062c-0.825,0.138-2.491,0.443-3.316,0.581c-5.287,14.105-7.809,29.081-9.245,44.026
		c-2.827,8.619-8.558,16-13.601,23.473c0.015-10.529-1.574-21.287-6.8-30.579c-2.863,10.767-13.221,56.383-33.88,65.054
		c-3.392,1.436-6.999-1.131-7.152-4.691c-0.122-5.669,3.087-10.651,5.242-15.709c18.537-41.979,13.815-90.651,35.071-131.697
		c5.517-11.4,14.044-20.859,22.724-29.921c-0.52-0.565-1.543-1.712-2.063-2.277c-18.716,15.393-25.996,36.364-28.684,39.518
		c-8.756,4.355-18.934,6.082-28.592,4.309c21.757-56.144,32.619-115.878,76.867-151.594c2.491-2.308,6.433-3.897,6.495-7.824
		c-4.493,0.367-7.503,3.973-10.789,6.602c-45.816,39.085-55.274,101.049-77.478,154.925c10.376,3.897,21.639,1.926,31.877-1.375
		c-14.49,39.365-15.855,106.914-35.087,127.907c-23.809,28.088-54.509,50.781-72.144,83.774
		c-22.404,39.278-90.739,36.081-119.961,132.094c-0.963,2.888-1.513,6.159-4.004,8.191c-35.087,32.229-72.664,61.86-112.962,87.334
		c-12.989,8.512-28.256,15.19-36.89,28.76c-2.903,4.309-5.211,11.11-0.749,15.205c13.022,9.562,42.912,3.326,51.988,2.048
		c-84.694,64.258-154.611,30.341-62.532-66.949c53.197-10.948,113.243-49.399,131.04-63.189c-0.015-0.779-0.061-2.338-0.092-3.133
		c-11.611,5.85-41.247,29.446-88.71,49.283c-20.204,8.141-59.474,22.505-76.683,9.23c-21.207-16.175,29.51-42.953,57.23-76.24
		c1.543-1.452,0.306-4.08-1.88-3.408c-8.359,4.157-16.168,11.415-26.086,10.773c1.498-17.083,33.843-43.367,63.724-57.046
		c-0.351-0.779-1.07-2.338-1.421-3.117c-53.287,22.715-78.548,66.157-59.216,63.969c5.364-0.657,10.177-3.316,15.068-5.425
		c-25.666,25.636-51.708,42.054-55.778,58.697c-1.757,6.663,2.995,13.066,8.466,16.351c8.451,4.967,18.659,4.661,28.118,4.095
		c-28.572,33.701-63.438,84.052-22.174,101.027c-18.708,19.643-38.636,52.56-25.444,64.167
		c15.868,12.423,58.081-16.655,75.002-27.69c-0.902,4.34-2.567,8.955-1.039,13.371c1.085,3.454,4.691,4.89,7.519,6.678
		c-22.433,15.526-44.301,32-63.984,50.949c1.559-8.833,7.732-15.725,10.544-24.007c-4.202-0.397-7.228,2.705-10.346,4.967
		c-59.063,45.907-87.57,137.93-157.034,142.47c-19.083,0.598-19.06-14.484-10.667-32.107c8.481-18.032,21.578-33.238,33.497-49.008
		c-2.904-2.032-4.875,0.52-6.541,2.659c-12.514,15.598-34.367,43.279-35.759,63.266c-0.321,2.094-0.107,4.539-1.773,6.174
		c-9.398,10.407-20.997,20.936-35.667,22.006c-12.424,1.391-26.254-1.834-34.964-11.278c-16.9-20.248-3.851-60.981,16.84-81.497
		c47.41,27.93,111.587-48.509,110.883-59.965c-2.185,0.703-3.927,2.094-5.074,4.05c-72.503,105.451-166.811,54.882-85.837-45.081
		c25.184,2.965,49.589-7.412,71.243-19.163c-0.199-0.81-0.611-2.43-0.81-3.255c-24.609,12.218-67.213,31.227-85.134,10.04
		c-22.043-27.951,13.523-98.945,77.997-145.542c2.032-1.177,3.27-2.949,2.69-5.364c-11.788,4.044-81.415,60.809-90.207,120.908
		c-0.638,5.768-41.152,70.793-71.976,71.854c-28.668-0.678-29.898-78.028,50.964-152.633c-1.635-1.88-3.515-1.941-5.028-0.015
		c-31.497,28.138-60.728,70.693-66.46,112.748c-1.1,5.563,0.596,11.736-2.674,16.764c-4.722,8.191-8.267,17.024-12.974,25.199
		c-28.3,19.168-47.795-36.862,25.627-154.085c20.312,9.621,44.93-16.754,59.675-31.984c-0.978,9.307-2.216,21.455,6.311,27.767
		c8.741,3.255,18.965,1.696,27.094-2.644c32.899-18.391,50.608-80.981,99.667-105.856c-8.405,16.688-15.48,34.903-14.38,53.914
		c0.611,7.855,2.552,16.611,9.031,21.792c10.33,7.274,24.603,7.091,35.438,0.963c31.291-17.617,55.438-68.633,99.835-91.262
		c4.86-2.72,10.407-3.927,15.266-6.632c-0.458-0.626-1.406-1.849-1.88-2.46c-67.035,18.434-103.343,128.171-146.948,96.076
		c-5.792-5.456-7.06-13.937-7.427-21.501c0.168-21.287,9.291-41.184,20.37-58.926c-64.921,23.15-81.682,110.236-122.757,114.49
		c-5.028,0.245-12.027,0.993-14.426-4.63c-5.486-10.605-0.627-22.342,2.537-32.794c-2.246-0.092-4.156,0.886-5.379,2.751
		c-11.675,14.227-24.619,28.302-41.444,36.416c-6.434,3.179-15.175,5.287-20.493-0.978c-28.292,18.861-36.212,10.411-30.961-6.189
		c14.369-39.718,78.047-101.344,82.444-102.158c144.441-36.866,351.02-105.796,465.264-201.289
		c36.661-29.86,71.778-61.967,101.776-98.628c-6.362,20.113-17.819,50.755,0.168,62.609c-12.985,16.003-39.385,48.939-37.119,69.241
		c0.458,5.7,5.471,10.162,11.018,10.819c37.569,4.454,102.261-53.453,104.649-69.302c-4.05,0.214-5.517,4.34-7.855,6.968
		c-49.68,63.827-163.334,98.859-66.872-16.504c4.686-1.348,24.446,0.489,51.988-38.128c11.767-17.559,20.844-37.501,23.717-58.544
		c-0.504-0.672-1.528-2.017-2.032-2.69c-2.786,7.13-6.386,39.103-33.666,70.601c-8.496,9.352-17.956,18.598-29.983,23.152
		c-28.746,11.161-21.996-33.851-4.844-70.097c18.139-25.276,34.078-53.134,39.763-84.095c3.408,1.284,6.984,3.24,10.758,2.109
		c9.75-2.43,16.428-10.605,23.136-17.528c-1.543,9.566-2.384,19.499-0.077,29.004c0.825,0.153,2.491,0.428,3.316,0.565
		c-5.724-39.23,10.56-42.575,20.447-64.748c-0.871,0.046-2.598,0.153-3.454,0.199c-9.914,14.433-26.274,42.694-43.629,48.962
		c-4.722,1.773-10.055-2.583-9.184-7.549c2.919-35.269-7.562-69.51-39.564-102.387c-0.841,0.306-2.522,0.932-3.362,1.253
		c49.966,55.487,59.276,114.44-7.473,200.159c-41.429,52.64-114.586,114.564-161.97,143.662
		c-133.994,83.134-332.207,144.8-485.894,177.16c-60.308,12.927-87.291-29.376-61.188-51.774c1.91-0.871,4.111-0.703,6.174-0.993
		c136.006-11.156,270.347-43.66,395.916-97.145c0.137-0.841,0.412-2.521,0.55-3.377c-27.227,8.832-167.65,75.652-382.468,95.724
		c-20.554,2.109-41.948,4.508-61.936-2.323c-30.408-11.206-23.752-29.126-12.821-32.901c69.317-0.092,138.589-7.962,206.21-23.121
		c5.012-1.467,9.857,1.406,14.808,1.956c42.155,6.996,98.966-7.139,138.253-23.411c-0.031-0.84-0.092-2.552-0.122-3.392
		c-100.576,36.935-152.446,25.996-159.402,12.47c1.214-11.546,26.881-35.466,51.973-45.57
		c41.611,22.748,94.275,11.187,139.231-2.965c-0.397-0.825-1.192-2.476-1.574-3.285c-44.597,14.107-96.259,25.223-136.832,2.552
		c-4.318-1.499-14.374-10.122,13.662-21.822c30.528-12.351,132.674-20.53,224.09-76.958c1.284-0.856,2.445-1.88,3.5-3.041
		c-1.268-1.498-2.674-1.788-4.203-0.871c-61.065,38.143-131.712,56.863-201.748,70.479c-21.061,3.2-38.421-4.957-24.726-23.198
		c13.874-17.78,48.554-37.845,54.968-39.381c28.897,0.443,56.435-10.009,82.215-22.097c7.992-3.958,16.29-7.457,23.87-12.195
		c-0.199-0.81-0.581-2.445-0.779-3.255c-72.702,36.531-115.945,52.903-185.779,0.046c26.009-7.259,53.898-9.964,77.493-24.084
		c65.253-38.265,138.726-61.784,213.713-70.876c0.107-0.84,0.336-2.506,0.443-3.347c-76.928,8.497-152.113,33.314-218.787,72.649
		c-30.074,16.535-65.818,16.229-96.962,29.921c-8.909,3.484-16.489,9.994-26.07,11.797c-20.585,4.048-35.201-0.062-24.298-17.773
		c43.718-67.646,119.11-110.425,178.749-85.333c3.79,1.437,7.366,3.759,11.568,3.744c-0.29-0.779-0.886-2.323-1.177-3.087
		c-6.266-6.663-13.112-12.775-19.362-19.453c0.183-0.443,0.55-1.314,0.718-1.757c198.233-55.44,185.94-2.433,329.762-91.659
		c-18.296,23.311-32.67,54.918-21.914,66.445c3.958,3.79,9.811,1.681,14.487,0.657c-13.723,16.137-25.444,34.46-42.865,46.976
		c-8.986,6.754-20.004,10.055-28.989,16.825c-31.812,22.867-55.035,63.956-44.072,81.375c14.998,19.855,66.655-16.988,85.745-30.426
		c2.46-2.032,6.143-3.469,6.479-7.091c-1.987,0.153-4.05,0.367-5.563,1.818c-16.609,12.112-62.506,45.53-81.023,36.065
		c-15.835-10.224,8.361-56.797,41.872-79.709c8.848-6.311,19.53-9.49,28.118-16.229c21.685-15.602,34.384-39.931,53.394-58.223
		c1.223-1.329,1.926-2.919,2.094-4.783c-6.374,1.148-18.868,15.446-27.079,10.254c-8.93-10.789,5.791-48.542,37.44-77.172
		c-0.718-0.474-2.17-1.406-2.903-1.88c-42.581,30.05-108.512,65.038-151.792,69.654c-68.508,3.836-136.343,16.794-202.13,35.988
		c5.685,6.22,12.241,11.568,17.925,17.803c-65.437-24.88-135.004,20.608-176.533,78.303c-4.967,7.167-11.538,15.022-9.887,24.374
		c1.391,5.914,7.87,8.39,13.295,9.077c28.956,2.423,32.823-11.713,62.67-19.331c9.673,5.456,18.521,12.577,28.302,18.032
		c-65.312,9.261-107.358,68.468-107.613,85.256c1.406,2.017,3.744,3.056,5.7,4.478c-39.922,33.003-102.428,33.935-122.574,24.894
		c0.515-12.977,13.157-30.6,26.697-38.953c19.884,8.278,62.121,2.725,101.73-20.936c-0.367-0.795-1.07-2.369-1.421-3.163
		c-49.501,28.438-90.66,26.79-98.628,20.019c-2.747-11.874,9.868-34.766,34.934-48.611c-0.428-0.795-1.268-2.399-1.681-3.209
		c-6.861,3.484-12.623,8.542-18.842,12.974c-5.647-22.308,13.716-55.346,47.174-68.156c3.148-1.91,10.743-1.543,8.833-6.861
		c-13.723,3.775-26.407,10.712-37.272,19.851c0.355-24.056,24.81-48.412,42.896-64.122c-0.703-0.535-2.14-1.605-2.858-2.139
		c-16.458,13.922-32.198,29.983-40.466,50.261c-2.781,6.158-2.812,12.959-3.026,19.576c-4.172,4.569-7.396,10.132-12.577,13.662
		c-25.291,17.727-48.809,37.791-73.336,56.527c-87.737,67.899-179.803,98.721-179.803,74.146
		c-1.415-26.039,57.676-73.392,78.227-89.214c43.36,16.743,164.6-60.679,197.545-91.277c-0.076-0.825-0.199-2.476-0.275-3.285
		c-4.05,2.063-7.457,5.104-11.033,7.855c-73.834,56.819-163.736,99.957-187.612,81.145c-14.873-11.409,58.939-57.597,92.056-74.376
		c76.082-13.956,126.335-72.087,191.173-106.36c-9.368,12.653-17.803,26.376-21.807,41.734c1.788,3.943,4.829-0.672,6.51-2.369
		c36.567-42.342,103.744-39.911,140.744-87.197c1.757-1.696,1.543-3.316-0.627-4.844c-12.347,16.244-29.295,28.378-47.786,36.722
		c1.65-6.327,3.652-12.546,5.517-18.796c-0.84-0.321-2.521-0.978-3.347-1.299c-2.262,7.442-4.523,14.869-6.831,22.296
		c-5.165,2.231-10.269,4.6-15.572,6.464c3.836-9.948,9.612-19.026,16.367-27.232c-0.795-0.474-2.384-1.406-3.179-1.864
		c-8.023,9.154-13.432,20.126-18.277,31.159c-23.717,9.765-48.122,19.973-66.628,38.387c5.379-15.037,14.991-28.24,26.361-39.335
		c0.978-3.041-1.803-3.5-3.851-2.063c-54.983,27.003-99.086,71.87-155.017,97.206c-74.52,32.575-123.967,7.704-69.975-33.253
		c3.927-3.209,8.863-4.539,13.524-6.235c63.235-22.984,121.764-57.26,185.58-78.792c2.415-0.428,3.331-1.91,2.781-4.462
		c-77.101,24.519-183.718,88.104-244.842,95.204c-4.264,0.214-10.223,0.993-12.928-2.995c0.446-14.75,45.17-43.378,62.7-52.447
		c53.51-27.358,109.601-35.971,142.654-54.464c54.558-29.043,133.585-51.978,193.771-65.956c-1.696,3.469-4.707,7.87-1.834,11.553
		c8.87,10.699,22.697,0.206,87.808-7.839c-107.081,54.079-107.027,122.235,55.381,78.181c35.667-9.891,88.619-28.661,97.818-34.017
		c-0.795-0.443-2.399-1.329-3.209-1.773c-36.928,13.8-165.368,62.898-210.076,41.627c-5.96-2.735-11.018-8.726-10.254-15.618
		c3.279-32.103,74.875-69.793,87.075-70.25c29.295-2.705,58.773-4.218,88.19-3.011c-6.296,4.997-15.282,8.665-17.543,17.054
		c-2.925,18.554,69.153,1.941,107.628-31.098c-0.642-0.55-1.941-1.62-2.598-2.17c-38.672,29.443-88.544,43.438-102.265,34.735
		c5.761-10.896,18.093-15.312,27.935-21.578c-62.655-3.209-125.722,2.659-186.971,16.153c-5.333,0.703-12.607,1.956-16.214-3.102
		c-1.589-2.216,0.963-4.218,2.277-5.746c6.22-5.929,15.144-7.014,23.151-8.894c57.856-11.675,116.691-21.18,175.876-19.943
		c47.321-2.969,110.988-41.074,149.714-69.302c-0.718,3.163-1.467,6.311-2.063,9.49c18.032,1.528,34.17-8.313,49.406-16.565
		c9.307,3.927,19.53,1.314,28.806-1.284c-34.257,27.33-53.385,63.311-48.259,78.654c15.093,11.621,76.225-23.332,81.329-45.616
		c-2.139-0.031-3.729,0.81-4.753,2.537c-21.227,30.439-60.833,44.885-74.146,40.833c0.179-27.147,28.843-60.42,58.742-81.482
		c-0.061-0.688-0.199-2.078-0.26-2.781c-12.516,2.613-25.734,11.064-38.953,6.067c1.306-13.252,13.608-36.871,39.32-53.409
		c-0.122-0.795-0.382-2.384-0.504-3.179c-22.277,11.279-39.557,36.596-42.682,56.298c-13.799,7.503-27.996,15.832-44.057,16.81
		c2.048-4.967,3.805-10.422,7.901-14.151c41.945-35.147,26.841-32.228,49.268-57.78c24.649-28.378,60.668-43.415,96.229-52.905
		c-0.26-0.779-0.779-2.308-1.039-3.087c-15.648-1.467-31.327,1.528-46.594,4.722c16.306-12.042,36.11-18.812,56.083-21.486
		c-0.122-0.749-0.367-2.246-0.489-2.995c-10.758-4.095-22.663-3.118-33.864-1.65c35.091-25.023,71.279-21.028,78.425-21.822
		c-0.413-2.032-1.834-3.484-3.943-3.53c-17.513-2.965-35.469-2.246-52.89,1.039c16.443-17.803,39.992-28.485,64.076-30.135
		c0.061-0.871,0.199-2.583,0.26-3.438c-9.505-2.277-19.316-1.987-28.897-0.489c15.629-15.565,41.149-18.642,101.928-21.99
		c0.031-0.871,0.092-2.628,0.122-3.5c-21.593-3.912-43.675-4.554-65.528-2.842c26.254-15.022,57.658-19.331,87.35-14.884
		c0.397-0.672,1.192-2.033,1.589-2.72c-12.057-5.776-25.398-7.809-38.54-9.307c20.554-4.584,41.719-5.287,62.639-3.423
		c-11.477-10.651-26.514-16-41.444-19.728c64.948-4.955,251.437,94.427,309.071,129.007c26.091,16.158,35.394,21.97,33.253,28.577
		c-3.698,6.632-12.027,8.481-16.046,14.823c-6.65,9.189-7.999,25.43,11.247,47.388c2.185,2.17,2.43,5.242,2.048,8.145
		c-7.84,2.139-15.557-0.963-23.274-2.002c-23.182-3.331-46.686-2.842-70.021-1.925c-4.508,0.061-9.062,0.993-13.509,0.153
		c-4.997-2.338-8.512-7.305-14.029-8.604c-7.335-1.666-16.504,4.554-14.808,12.668c1.559,8.619,9.856,17.818,19.346,15.48
		c13.219-2.124,26.682-2.246,40.022-1.543c-14.828,21.689,23.523,21.123,67.453,39.136
		C2126.257,304.428,2060.469,331.764,2017.29,368.469z M1881.116,546.943c0.031,5.196,3.744,10.223,1.65,15.358
		c-8.055,25.4-28.201,56.624-47.159,64.458c-22.017,11.57-7.847-87.032,10.56-135.395c15.795,12.585,33.38-10.777,45.509-25.749
		C1885.716,492.265,1878.885,519.42,1881.116,546.943z M2215.233,320.973c-11.125-3.087-20.279-10.453-30.915-14.64
		c-41.362-16.499-66.258-16.456-69.378-28.24c0.978-3.943,5.257-6.418,9.123-6.571c5.563,0.413,10.789,2.583,16.198,3.897
		c13.662,3.683,27.843,4.615,41.872,5.975c24.907,2.413,16.109,11.153,59.186,30.548c16.698,8.635,13.711,6.574,17.36,27.675
		C2246.346,329.134,2230.332,325.497,2215.233,320.973z M2263.034,365.978c1.482-14.915-0.764-29.891-3.943-44.439
		c-3.316-8.787-13.646-11.079-21.119-15.159c-32.29-14.797-30.902-25.118-51.606-28.026c-12.302-1.757-24.817-1.91-36.997-4.508
		c-9.985-1.725-31.936-11.928-74.452-5.41c-7.595,2.246-13.799-5.318-15.633-11.859c-1.498-5.012,3.744-9.062,8.268-9.414
		c7.793,0.199,11.675,10.01,19.744,9.215c30.624-1.528,61.738-2.949,91.919,3.606c4.936,0.764,11.079,1.62,14.93-2.43
		c5.191-8.102-7.17-15.01-12.546-26.376c-4.187-7.87-6.373-17.788-2.078-26.07c3.362-6.403,10.407-9.184,15.48-13.922
		c39.25,28.948,87.922,70.18,89.428,118.876C2284.673,330.555,2276.115,350.467,2263.034,365.978z"/>
	<path d="M1922.3,85.973c-0.137-4.187-4.325-6.143-7.029-8.649c-6.861-5.012-13.616-10.773-21.96-13.035
		c0.214,0.856,0.642,2.598,0.856,3.469C1919.907,83.213,1917.224,86.108,1922.3,85.973z"/>
	<path d="M1871.825,69.132c-0.458,0.734-1.375,2.216-1.834,2.965c4.111,1.559,8.206,3.209,12.439,4.462
		C1883.286,70.859,1875.599,70.829,1871.825,69.132z"/>
	<path d="M1954.957,83.466c3.714,1.971,7.198,4.584,11.431,5.425c0.657-3.729-3.316-4.905-5.761-6.541
		c-11.354-6.143-23.32-11.431-35.988-14.105c0.077,0.856,0.245,2.552,0.336,3.392C1935.243,74.771,1945.452,78.362,1954.957,83.466z
		"/>
	<path d="M1980.446,84.276c-1.895-7.03-9.031-11.156-15.495-13.356c0.122,0.795,0.351,2.399,0.474,3.209
		C1970.865,76.88,1974.41,82.932,1980.446,84.276z"/>
	<path d="M1884.249,87.394c0.367-0.81,1.116-2.414,1.483-3.209c-5.563-2.628-11.614-4.157-17.773-4.172
		c0.275,0.795,0.81,2.399,1.07,3.209C1874.193,84.185,1879.389,85.224,1884.249,87.394z"/>
	<path d="M2007.22,101.545c12.439,8.749,13.039,18.476,19.285,17.803c-2.962-8.534-17.945-24.191-23.366-23.564
		C2002.07,98.763,2005.493,99.955,2007.22,101.545z"/>
	<path d="M1818.431,102.018c6.831,0.52,13.203,3.194,19.835,4.737c-0.229-0.902-0.657-2.72-0.886-3.637
		c-13.081-5.349-27.599-6.036-41.49-4.325c-2.14-0.015-3.637,1.131-3.545,3.362C1801.025,102.202,1809.735,100.857,1818.431,102.018
		z"/>
	<path d="M1878.488,107c12.485,3.331,25.597,0.336,38.097,3.591c0.321-0.84,0.932-2.521,1.253-3.362
		c-12.684-3.393-25.964-0.428-38.678-3.637C1878.992,104.448,1878.656,106.144,1878.488,107z"/>
	<path d="M1971.323,108.162c7.916,5.822,17.971,7.778,25.566,14.12c1.314,1.131,2.72,1.039,4.233-0.26
		c-6.938-9.154-19.301-10.361-28.088-17.039C1972.607,105.778,1971.751,107.367,1971.323,108.162z"/>
	<path d="M1901.028,167.959c0.046-0.84,0.107-2.506,0.153-3.331c-13.983,2.888-30.777,1.849-41.001-9.322
		c-12.745-11.324-30.089-15.312-46.471-17.803c-3.545-4.34-6.296-9.368-7.748-14.793c19.576-10.514,42.636-8.772,64.076-7.855
		c0.581-0.718,1.727-2.17,2.292-2.888c-18.958-2.417-56.685-2.658-69.165,9.123c-1.605,6.143,3.24,11.415,5.761,16.596
		c-21.975-0.611-44.699,6.678-60.393,22.479c2.888,5.96,7.106,11.11,12.011,15.541c-14.304,5.18-27.293,14.609-34.888,27.996
		c-16.855,12.312-40.764,12.701-11.736-10.575c1.498-2.598-1.62-4.157-3.347-2.078c-23.587,17.027-15.756,33.64,12.974,18.537
		c-0.168,4.447-0.871,9.444,1.849,13.341c9.357,13.322,34.042,1.139,47.694-7.794c0.015-0.886,0.046-2.659,0.046-3.545
		c-10.575,5.074-20.584,12.424-32.641,13.478c-24.077,2.594-17.38-34.564,27.95-48.107c-6.067-4.432-11.782-9.49-15.496-16.107
		c27.782-24.955,72.97-25.856,102.968-4.432C1866.889,168.952,1885.471,171.962,1901.028,167.959z"/>
	<path d="M2053.89,132.368c-0.871-5.868-2.521-11.583-4.325-17.238c-0.825,0.275-2.46,0.81-3.286,1.07
		c1.498,5.242,2.904,10.514,4.08,15.847C2051.246,132.123,2053.003,132.291,2053.89,132.368z"/>
	<path d="M1792.452,120.906c-8.955-1.574-18.032,0.031-26.743,2.185c-0.092,0.886-0.275,2.674-0.367,3.561
		c8.588-2.078,17.345-2.949,26.147-3.24C1791.734,122.786,1792.207,121.533,1792.452,120.906z"/>
	<path d="M2063.823,136.662c-0.367-4.753-0.84-9.505-1.574-14.212c-0.932-0.107-2.781-0.306-3.698-0.413
		c0.733,4.951,1.33,9.918,1.895,14.9C2061.286,136.876,2062.982,136.738,2063.823,136.662z"/>
	<path d="M1918.189,132.215c-0.26-0.779-0.779-2.338-1.039-3.117c-13.769-3.286-28.363-1.253-41.765,2.766
		c-0.138,0.81-0.428,2.43-0.565,3.24c7.702-1.131,15.19-3.5,23.014-3.897C1904.634,130.488,1911.404,131.726,1918.189,132.215z"/>
	<path d="M1916.569,135.424c-8.038,0.596-16.168,2.644-22.953,7.106c-0.061,0.795-0.168,2.399-0.229,3.194
		c7.412-2.735,14.655-6.052,22.601-6.999C1916.141,137.9,1916.432,136.249,1916.569,135.424z"/>
	<path d="M2114.115,166.384c0.917,0.046,2.751,0.138,3.667,0.183c-1.62-9.138-8.573-16.107-16.764-19.881
		c-0.183,0.795-0.565,2.369-0.749,3.163C2106.26,154.037,2112.403,158.835,2114.115,166.384z"/>
	<path d="M1957.86,154.725c-0.214,0.84-0.657,2.506-0.871,3.331c8.39-1.498,16.917-1.146,25.138,1.131
		c-0.031-0.795-0.092-2.384-0.122-3.179C1974.41,152.876,1965.776,152.83,1957.86,154.725z"/>
	<path d="M2039.984,192.256c1.773,15.251,19.897,25.169,33.727,18.567c8.16-3.316,12.393-11.308,16.733-18.384
		c4.875-5.196,11.813-0.871,17.299,0.672v-3.392c-25.138-25.322-62.028-34.491-96.763-35.087c0.061,0.902,0.168,2.72,0.229,3.637
		C2052.93,171.338,2036.223,180.377,2039.984,192.256z M2051.2,163.42c2.262,0.52,4.554,1.07,6.846,1.635
		c-12.059,13.709-10.894,33.909-0.015,38.28c8.189,3.876,22.425-2.074,24.726-27.843c2.094,1.238,4.187,2.491,6.311,3.744
		c-3.81,36.22-37.658,37.004-44.485,16.382C2040.625,184.631,2044.476,172.467,2051.2,163.42z"/>
	<path d="M1960.779,172.375c6.357-2.98,13.188-5.135,20.324-3.744c-0.122-0.841-0.367-2.521-0.489-3.362
		C1968.394,163.007,1955.434,169.469,1960.779,172.375z"/>
	<path d="M2141.606,175.034c9.551,3.82,17.727,11.996,28.684,11.553c0.229-5.028-5.944-3.53-9.047-5.394
		c-9.444-4.248-17.971-12.409-29.173-10.56C2131.994,176.104,2138.275,173.261,2141.606,175.034z"/>
	<path d="M2052.667,224.088c0.443-4.936-5.303-3.79-8.344-5.456c-12.225-4.447-17.711-17.589-19.423-29.539
		C2017.485,193.633,2028.973,223.659,2052.667,224.088z"/>
	<path d="M2162.863,196.321c1.91,1.498,4.768-1.07,2.583-2.766c-11.049-5.333-24.466-2.078-33.742,5.364
		c0.382,0.825,1.146,2.476,1.528,3.285C2141.515,195.756,2152.701,192.134,2162.863,196.321z"/>
	<path d="M1826.943,196.902c-10.559-0.336-21.593,1.436-30.899,6.647c0.306,0.733,0.917,2.201,1.238,2.934
		c9.612-4.416,20.065-6.082,30.563-6.724C1827.63,199.057,1827.172,197.62,1826.943,196.902z"/>
	<path d="M1692.648,210.441c-0.367-0.825-1.07-2.46-1.436-3.27c-12.164,3.347-23.687,9.169-33.131,17.589
		c-1.452,1.238-2.109,2.827-2.002,4.798c4.829-1.589,8.283-5.517,12.485-8.191C1675.792,216.172,1684.212,213.07,1692.648,210.441z"
		/>
	<path d="M2113.549,207.171c-8.115,1.436-17.757,5.517-19.117,14.716c5.15-0.275,6.097-6.984,10.972-8.283
		C2108.308,211.587,2114.481,212.077,2113.549,207.171z"/>
	<path d="M1691.792,223.186c-3.576-0.244-4.676,3.515-6.586,5.746c-3.866,5.746-9.811,9.459-15.159,13.631
		c0.565,0.458,1.681,1.391,2.246,1.849C1679.216,241.738,1691.329,230.508,1691.792,223.186z"/>
	<path d="M1678.13,225.723c-5.058,3.775-9.291,8.573-14.686,11.92c-2.46,2.017-7.228,3.102-5.654,7.198
		c9.123-4.08,17.696-10.483,23.335-18.827C1680.377,225.937,1678.879,225.799,1678.13,225.723z"/>
	<path d="M1775.566,272.76c9.734-0.031,18.506-4.814,26.804-9.383c0.061,3.591-1.742,8.283,1.436,11.049
		c7.43,5.453,25.818-2.723,27.507-22.693c-0.825,0.122-2.445,0.397-3.27,0.535c-1.666,10.59-10.529,21.975-22.327,19.958
		c-0.901-11.418,7.139-13.194,3.408-17.62c-9.521,5.883-19.01,12.821-30.38,14.395c-23.713,3.902-16.127-34.542,23.136-37.654
		c2.72-0.52,7.106,0.474,7.32-3.499C1762.432,224.297,1748.298,272.76,1775.566,272.76z"/>
	<path d="M1923.981,244.978c-0.137,0.84-0.428,2.537-0.581,3.377c8.434-2.684,16.227-11.572,40.084-10.529
		c-0.092-0.902-0.26-2.705-0.352-3.606C1949.455,233.669,1935.091,236.68,1923.981,244.978z"/>
	<path d="M1866.904,267.549c0.581,0.703,1.757,2.094,2.338,2.797c13.86-16.947,34.888-25.291,54.907-32.535
		c0.031-0.871,0.107-2.598,0.138-3.469C1903.167,240.959,1881.452,250.174,1866.904,267.549z"/>
	<path d="M2108.751,241.509c-0.061,0.825-0.168,2.46-0.214,3.285c14.426-4.294,29.555-3.897,44.332-1.956
		c-0.107-0.688-0.352-2.078-0.474-2.766C2138.244,236.649,2122.626,236.817,2108.751,241.509z"/>
	<path d="M2205.728,238.88c-10.573,5.934,11.016,22.7,18.537,13.922C2227.332,244.391,2212.287,236.133,2205.728,238.88z"/>
	<path d="M2000.496,245.696c3.866,1.941,8.435,6.449,12.852,3.423c-3.729-3.209-8.298-5.226-13.035-6.342
		C2000.358,243.511,2000.45,244.962,2000.496,245.696z"/>
	<path d="M1936.359,259.572c5.807-6.128,13.371-9.918,21.379-12.286c0.046-0.84,0.153-2.537,0.199-3.392
		c-9.016,1.635-17.329,6.097-23.656,12.684C1934.8,257.325,1935.839,258.823,1936.359,259.572z"/>
	<path d="M1748.64,276.595c0.031-0.871,0.107-2.613,0.153-3.469c-14.028-2.445-28.424,3.194-37.99,13.478
		c-14.9,15.557-38.143,14.487-56.741,22.77c5.743-28.809,30.362-58.591,63.495-58.467v-3.545
		c-36.995-0.513-65.271,35.232-67.942,68.721c17.024-10.544,38.418-9.49,55.411-20.065
		C1715.8,289.7,1722.547,273.572,1748.64,276.595z"/>
	<path d="M1997.317,250.51c-0.489,0.779-1.482,2.308-1.987,3.072c4.004,2.262,8.023,4.554,12.378,6.113
		c-0.031-0.932-0.076-2.812-0.092-3.744C2004.118,254.254,2000.71,252.389,1997.317,250.51z"/>
	<path d="M2045.393,267.931c-2.476-3.286-2.155-8.344-5.379-10.896l-1.36,1.085c0.214,14.411,14.579,26.101,28.821,24.328
		c-0.046-0.856-0.168-2.583-0.229-3.438C2058.673,279.361,2049.55,275.831,2045.393,267.931z"/>
	<path d="M1863.97,311.438c0.825,0.352,2.491,1.054,3.316,1.406c7.121-16.84,17.88-32.397,32.489-43.583
		c2.414-2.017,5.853-3.53,6.021-7.152C1896.334,263.093,1874.561,285.717,1863.97,311.438z"/>
	<path d="M2105.007,297.256c-27.935-2.308-58.681,1.039-81.191,19.194c0.535,0.581,1.574,1.727,2.109,2.308
		c17.432-10.926,35.752-22.161,86.28-17.375C2112.892,296.767,2107.971,297.822,2105.007,297.256z"/>
	<path d="M1827.798,321.248c-0.153,0.81-0.443,2.445-0.581,3.255c8.863-0.565,17.177-4.08,24.894-8.313
		c-0.443-0.764-1.329-2.323-1.788-3.102C1843.263,316.939,1835.714,319.797,1827.798,321.248z"/>
	<path d="M1574.383,320.836c-0.733,0.138-2.201,0.413-2.934,0.55c-11.587,12.452-20.267,27.021-60.485,45.646
		c-0.031,0.856-0.061,2.552-0.092,3.408C1546.938,357.062,1572.657,328.561,1574.383,320.836z"/>
	<path d="M1671.07,343.162c5.012-6.327,7.763-14.09,9.093-21.99c-0.871,0.137-2.598,0.428-3.469,0.565
		c-1.925,7.962-5.349,15.358-10.254,21.914C1667.448,345.668,1670.398,345.302,1671.07,343.162z"/>
	<path d="M1977.421,374.291c4.141,0.993,5.7-3.285,7.839-5.853c14.67-19.362,35.973-33.146,58.987-40.527
		c2.338-0.458,3.805-1.757,3.178-4.34C2011.343,332.313,1983.867,359.805,1977.421,374.291z"/>
	<path d="M1680.484,340.794c0.779,0.458,2.369,1.391,3.163,1.849c3.698-5.44,6.922-11.247,8.848-17.574
		c-0.84,0.061-2.537,0.183-3.392,0.244C1686.291,330.509,1683.907,335.949,1680.484,340.794z"/>
	<path d="M1745.262,447.597c-0.245,3.988-1.864,11.553,4.401,11.278c15.293-2.845,38.105-28.265,47.694-40.481
		c-0.581-0.703-1.757-2.078-2.338-2.766c-10.823,13.271-29.914,35.241-46.487,40.084c-0.547-30.743,26.865-97.54,90.972-123.262
		c-0.168-0.902-0.535-2.689-0.718-3.591C1789.548,348.266,1753.239,395.548,1745.262,447.597z"/>
	<path d="M1565.214,348.48c-0.795-0.199-2.384-0.596-3.163-0.795c-4.615,3.897-8.818,8.374-14.12,11.385
		c-2.705,1.941-7.228,2.812-6.556,7.06C1550.88,362.952,1559.193,356.442,1565.214,348.48z"/>
	<path d="M1868.417,369.936c0.596,0.749,1.757,2.231,2.338,2.98c12.513-18.412,18.507-18.426,28.821-23.167
		c0.061-0.825,0.199-2.46,0.26-3.285C1886.48,349.153,1875.339,358.428,1868.417,369.936z"/>
	<path d="M1504.302,383.032c-3.775,0.703-5.639,4.248-8.328,6.556c-9.627,8.818-21.135,15.221-32.886,20.737
		c-0.29,0.947-0.84,2.827-1.115,3.775C1477.048,409.245,1504.38,391.78,1504.302,383.032z"/>
	<path d="M1499.167,399.23c0.81,0.856,1.635,1.742,2.476,2.613c5.349-5.41,12.24-10.835,13.402-18.796
		c-0.734,0.26-2.231,0.795-2.98,1.054C1508.199,389.496,1504.073,394.707,1499.167,399.23z"/>
	<path d="M1652.014,391.131c0.168,0.672,0.504,2.017,0.657,2.69c8.176,2.781,16.993,4.065,24.512,8.665
		c5.18,2.308,8.756,7.32,14.288,8.879c-0.077-0.749-0.214-2.216-0.291-2.949C1680.942,398.145,1666.333,392.415,1652.014,391.131z"
		/>
	<path d="M1572.198,413.947c-4.539,5.593-11.003,8.879-17.039,12.516c0.076,0.825,0.214,2.476,0.29,3.301
		c12.826-5.05,24.056-16.019,25.474-22.922C1576.431,406.459,1574.949,411.364,1572.198,413.947z"/>
	<path d="M1684.167,419.906c-14.013-11.064-32.336-14.456-49.788-14.288c0.214,0.81,0.657,2.445,0.886,3.27
		c41.384,2.645,40.059,12.538,52.003,16.642C1687.299,423.1,1686.214,421.129,1684.167,419.906z"/>
	<path d="M1725.289,412.159c-11.706,18.506-17.192,40.802-16.138,62.639c0.856,0.29,2.583,0.871,3.438,1.146
		c-1.37-36.306,12.926-55.34,15.847-63.556C1727.643,412.327,1726.069,412.22,1725.289,412.159z"/>
	<path d="M1231.357,424.491c-8.48,1.902-116.884,63.495-155.017,57.398c-20.288-1.788,6.463-35.908,36.416-44.821
		c2.369-0.81,5.792-1.345,5.486-4.646c-47.485,2.469-128.554,120.224,108.194-2.185
		C1228.744,428.907,1232.213,427.914,1231.357,424.491z"/>
	<path d="M1728.59,474.141c0.932-0.092,2.797-0.245,3.729-0.336c-1.607-22.63,5.297-31.647,11.14-44.531
		c-0.779-0.122-2.323-0.397-3.102-0.52C1731.356,441.927,1727.413,458.263,1728.59,474.141z"/>
	<path d="M1248.381,464.789c0.443,0.795,1.314,2.399,1.742,3.194c28.485-17.941,61.203-28.607,94.532-32.749
		c2.873-0.565,7.748-0.015,6.755-4.447C1315.177,434.485,1279.295,445.259,1248.381,464.789z"/>
	<path d="M1805.762,439.36c-0.199-0.947-0.565-2.873-0.749-3.82c-7.931,5.761-15.954,12.898-18.873,22.571
		c0.734-0.015,2.17-0.015,2.888-0.031C1793.568,450.989,1798.901,444.388,1805.762,439.36z"/>
	<path d="M1784.353,486.183c0.841,0.03,2.506,0.107,3.347,0.137c5.807-13.616,14.227-26.514,26.376-35.3
		c2.323-1.819,5.532-3.255,5.822-6.602C1812.858,443.729,1791.882,463.288,1784.353,486.183z"/>
	<path d="M1283.253,474.08c4.111-0.474,6.388-4.248,9.49-6.556c3.622-3.224,8.68-5.853,9.383-11.186
		c-4.004,0.749-6.464,4.157-9.536,6.464C1288.923,466.011,1284.109,468.853,1283.253,474.08z"/>
	<path d="M1306.879,469.602c-1.528,2.476-4.34,5.257-1.864,8.145c4.432-4.233,7.427-9.658,10.758-14.747
		c1.406-1.467,0.688-3.301-0.367-4.691C1311.952,461.579,1309.522,465.705,1306.879,469.602z"/>
	<path d="M818.784,569.758c-2.552,2.002-7.687,4.019-4.6,7.885c96.048-70.966,192.866-79.777,247.669-110.257
		c2.277-0.932,3.637-2.72,3.561-5.257c-5.853,1.681-10.804,5.349-16.336,7.778C994.206,495.096,907.391,507.297,818.784,569.758z"/>
	<path d="M1648.652,525.426c-0.428-8.069-0.183-16.229-1.88-24.16c-0.81-0.214-2.43-0.642-3.24-0.856
		c2.198,23.431,3.367,54.077-14.9,70.769c-11.813,11.277-29.694,7.677-34.644-15.098c-4.534-24.615,7.03-45.401,7.412-53.104
		c-1.956-0.138-3.163,0.672-3.637,2.415c-4.783,12.134-7.855,24.955-8.588,37.99c-38.831,18.596-62.672,57.805-60.301,87.105
		c-3.056,4.462-7.06,8.206-10.162,12.668c-2.827,4.921-9.138,4.997-13.494,7.916c-20.997,11.874-30.12,36.982-51.621,48.32
		c5.715,7.977,14.533,12.928,23.839,15.542c-17.253,5.089-35.239,9.016-53.318,7.763c-2.2-0.428-3.881,1.085-5.501,2.231
		c-11.186,8.191-23.778,14.686-37.241,18.2c42.139,48.099,113.937,33.665,164.629-34.567c1.07-1.513,2.384-2.965,4.37-3.209
		c29.035-6.693,54.739-23.121,77.31-42.101c-0.535-0.749-1.589-2.246-2.109-3.011c-50.808,42.514-100.091,53.358-122.956,36.019
		c-4.646-3.362-2.292-9.322-0.871-13.723c6.571-17.91,16.443-34.735,29.432-48.733c23.35,5.135,48.198-8.344,59.308-28.989
		c1.314,10.804,1.269,21.73,0.168,32.55c16.458-11.736,31.389-28.577,33.283-49.543c-0.825,0.229-2.46,0.672-3.286,0.902
		c-3.072,16.137-12.577,30.456-25.505,40.42c0.122-12.348-0.55-24.71-3.438-36.768c-3.072,6.831-5.761,14.013-10.712,19.774
		c-18.389,21.772-48.565,22.215-48.534,15.679c-1.773-22.245,18.242-61.643,56.71-80.259c0.886,7.641,2.032,15.572,6.311,22.174
		c12.923,21.768,49.314,13.451,52.691-39.335c30.385,8.742,28.973-48.079,17.604-61.921c-2.965,3.102,0.137,6.923,0.81,10.3
		C1677.764,516.122,1657.879,535.34,1648.652,525.426z M1504.562,702.051c11.553,6.235,25.169,5.899,37.898,4.951
		c-42.421,58.798-112.545,82.029-154.069,38.005c11.721-4.218,22.846-10.071,32.932-17.406c2.445-2.262,5.914-0.902,8.894-1.1
		c20.6-0.122,40.909-5.15,60.21-12.088c-11.064-2.965-23.335-4.951-31.297-14.09c20.982-12.745,30.074-39.243,53.394-48.672
		C1496.282,682.495,1489.894,694.254,1504.562,702.051z"/>
	<path d="M1464.524,547.63c6.311-6.036,14.839-8.527,22.815-11.507c-0.046-0.81-0.122-2.43-0.153-3.255
		c-16.516,3.708-30.016,13.444-30.976,20.218C1460.016,553.437,1461.895,549.663,1464.524,547.63z"/>
	<path d="M1659.166,589.914c10.269-12.241,18.98-27.446,18.506-43.858c-0.718-0.229-2.155-0.688-2.873-0.917
		c-0.871,16.046-8.313,30.915-18.766,42.865C1656.812,588.493,1658.386,589.441,1659.166,589.914z"/>
	<path d="M1448.661,580.669c8.634-11.125,19.713-20.523,32.489-26.559c-0.076-0.948-0.244-2.827-0.321-3.775
		c-16.458,7.335-30.472,19.958-39.977,35.224C1444.887,588.401,1446.553,583.16,1448.661,580.669z"/>
	<path d="M1108.279,623.534c0.55,0.504,1.666,1.498,2.216,2.002c19.148-15.144,43.996-19.072,64.779-31.19
		c-0.443-0.795-1.329-2.369-1.773-3.163C1152.687,603.775,1126.479,606.633,1108.279,623.534z"/>
	<path d="M1361.388,637.486c1.528,0.443,3.606,1.956,4.6-0.229c2.781-4.37,7.549-8.099,7.717-13.631
		C1367.531,625.521,1365.468,632.978,1361.388,637.486z"/>
	<path d="M1344.899,638.877c-2.506,2.873-6.235,5.196-6.632,9.322c4.829-0.626,7.671-4.936,10.697-8.267
		c3.591-4.661,7.946-9.337,8.818-15.389c-0.779,0.245-2.353,0.718-3.133,0.963C1351.425,629.983,1348.842,634.965,1344.899,638.877z
		"/>
	<path d="M1741.274,637.226c0.351,17.452-6.204,34.674-17.91,47.572c0.443,0.672,1.345,2.017,1.803,2.69
		c13.585-12.837,19.82-31.969,19.652-50.368C1743.933,637.15,1742.16,637.196,1741.274,637.226z"/>
	<path d="M1408.624,767.349c-37.026,35.893-99.351,31.803-121.688,21.776c0.355-13.738,26.159-41.717,57.78-57.153
		c9.689-4.523,20.646-8.115,27.339-17.008c5.639-6.968,5.104-17.115,11.568-23.549c12.403-11.732,32.865-12.561,36.34-17.773
		c-11.431-1.528-25.551,1.329-34.017-8.604c11.675-6.938,24.42-12.103,35.239-20.493c-0.474-0.749-1.421-2.262-1.895-3.01
		c-25.392,17.212-31.436,15.921-36.416,21.96c0.351,9.841,12.668,11.4,20.202,13.112c-8.619,3.759-18.216,6.953-24.16,14.701
		c-5.318,6.739-4.722,16.474-10.819,22.739c-5.807,6.495-14.105,9.765-21.853,13.31c-29.016,13.132-59.094,40.009-62.731,59.583
		c-1.177,4.676,3.989,6.464,7.442,7.671c30.683,9.394,87.188,8.037,119.731-24.451
		C1410.167,769.458,1409.143,768.052,1408.624,767.349z"/>
	<path d="M1747.219,666.231c-0.948,10.926-6.693,20.584-14.716,27.812c0.168,0.581,0.52,1.727,0.688,2.308l1.131,0.199
		c7.717-5.165,12.974-13.891,15.083-22.877C1749.938,671.029,1751.176,666.659,1747.219,666.231z"/>
	<path d="M726.07,793.664c0.856,0.795,1.727,1.605,2.598,2.415c34.078-32.412,70.494-62.624,110.532-87.441
		c-0.458-0.795-1.391-2.369-1.849-3.148C797.023,730.459,760.21,760.824,726.07,793.664z"/>
	<path d="M837.596,786.849c0.627,0.565,1.91,1.681,2.537,2.246c9.658-6.464,19.301-12.974,28.928-19.469
		c0.046-0.733,0.138-2.216,0.183-2.965C863.24,768.122,842.389,783.178,837.596,786.849z"/>
	<path d="M1500.298,821.156c23.793-8.008,43.415-29.188,48.29-54.005c-0.825,0.031-2.46,0.107-3.286,0.138
		c-5.196,20.432-19.637,38.082-38.525,47.373C1504.042,816.281,1499.519,816.984,1500.298,821.156z"/>
	<path d="M1633.982,832.969c0.474-6.25,0.474-12.546-0.458-18.766c-11.981,20.432-25.811,40.099-43.767,55.763
		c-42.613,37.96-97.599,48.819-116.981,37.287c4.317-18.976,43.465-67.836,100.232-84.446c1.864-0.443,2.827-1.681,2.873-3.713
		c-11.782,0.458-23.916,0.932-35.071-3.545c23.534-10.773,45.615-24.68,65.91-40.695c-0.138-0.764-0.413-2.308-0.55-3.072
		c-10.819,5.869-35.362,27.897-73.978,43.171c8.252,5.639,18.338,7.366,28.103,8.176c-53.201,20.742-88.159,66.539-90.742,82.903
		c0.092,4.86,5.547,6.923,9.566,7.87c29.623,5.556,70.683-8.173,102.387-32.321c19.82-14.838,35.499-34.307,49.1-54.8
		c1.161,5.99-3.912,11.66-1.635,17.39c4.373-3.502,24.246-30.553,26.498-34.032c-0.795-0.367-2.399-1.085-3.194-1.452
		C1646.176,816.785,1640.048,824.854,1633.982,832.969z"/>
	<path d="M1444.841,793.817c-18.323,12.959-39.045,21.822-59.094,31.602c0,0.825,0.031,2.476,0.046,3.301
		c7.398-2.638,53.055-22.247,75.537-43.492c-0.122-0.764-0.367-2.292-0.489-3.056
		C1455.019,785.366,1450.373,790.211,1444.841,793.817z"/>
	<path d="M982.236,826.535c41.78-6.816,82.994-17.146,123.414-29.723c2.537-0.902,6.525-1.436,5.211-5.119
		c-9.043,1.956-50.31,17.129-125.905,31.052C982.847,822.959,981.93,824.212,982.236,826.535z"/>
	<path d="M664.577,809.756c-2.231,1.773-5.669,2.873-5.853,6.204c2.002-0.214,4.157-0.26,5.822-1.605
		c7.03-4.554,12.928-10.789,17.207-17.987c-0.779-0.367-2.338-1.131-3.117-1.498C674.694,800.464,670.369,805.966,664.577,809.756z"
		/>
	<path d="M1505.28,799.594c-0.734-0.458-2.201-1.375-2.934-1.834c-22.449,25.184-55.06,38.983-87.9,44.072
		c0.168,0.841,0.489,2.522,0.657,3.377C1448.814,840.166,1482.816,826.015,1505.28,799.594z"/>
	<path d="M886.145,840.609c21.348-2.323,42.773-4.462,63.908-8.344c0.214-0.856,0.642-2.567,0.856-3.408
		c-23.09,3.53-46.303,6.082-69.486,8.894C882.004,839.952,883.838,841.343,886.145,840.609z"/>
	<path d="M1367.638,891.008c9.948-2.934,20.294-3.912,30.517-5.318c0.199-0.84,0.596-2.521,0.795-3.362
		c-10.865,0.856-21.761,2.139-32.244,5.257C1366.935,888.441,1367.409,890.152,1367.638,891.008z"/>
	<path d="M1344.823,918.943c4.462-1.467,8.252-4.432,12.47-6.449c8.008-4.263,16.657-6.984,25.123-10.147
		c0.214-0.81,0.642-2.414,0.856-3.224c-14.288,3.041-28.011,9.368-40.068,17.574C1343.616,917.262,1344.41,918.377,1344.823,918.943
		z"/>
	<path d="M1508.749,933.995c-49.701,11.241-75.274,50.022-104.985,52.691c-0.153,0.825-0.458,2.506-0.611,3.347
		c32.559-0.944,55.105-42.49,113.986-54.372C1516.328,931.015,1511.775,933.598,1508.749,933.995z"/>
	<path d="M1579.38,971.007c0.856-0.107,2.552-0.321,3.408-0.428c2.017-11.583,6.403-22.647,13.157-32.275
		c-0.825-0.367-2.506-1.115-3.347-1.482C1585.569,946.954,1580.725,958.69,1579.38,971.007z"/>
	<path d="M873.385,941.01c-0.825,0.153-2.46,0.474-3.286,0.627c-5.364,13.509-13.096,26.575-25.444,34.827
		c0.902,0.932,1.819,1.849,2.766,2.751C859.922,969.8,869.565,956.245,873.385,941.01z"/>
	<path d="M655.271,946.022c-0.856,0.321-2.583,0.963-3.438,1.284c1.956,1.391,4.141,2.705,6.678,2.415
		c9.627,0.168,19.255,0.642,28.897,0.351c-0.061-0.871-0.199-2.613-0.26-3.499C676.512,946.847,665.891,946.19,655.271,946.022z"/>
	<path d="M1117.891,1024.05c2.628,0.428,4.233-1.1,5.058-3.438c11.843-24.802,30.41-45.768,51.224-63.464
		c1.864-1.375,3.102-3.224,2.781-5.639C1170.253,953.957,1131.916,987.391,1117.891,1024.05z"/>
	<path d="M1078.113,989.452c3.591-1.284,5.501-4.691,7.809-7.442c6.586-8.283,14.884-14.991,23.656-20.814
		c-0.443-0.764-1.314-2.308-1.757-3.072C1096.52,964.941,1076.974,982.616,1078.113,989.452z"/>
	<path d="M1692.678,979.091c-8.955,11.935-20.859,21.226-33.023,29.692c0.413,0.764,1.238,2.292,1.666,3.056
		c11.23-7.302,35.661-26.199,38.617-38.739C1696.178,972.994,1694.711,976.631,1692.678,979.091z"/>
	<path d="M1262.745,1267.746c-20.519-7.528-21.855-58.481,31.281-122.222c-0.015-0.642-0.031-1.926-0.031-2.567l-1.329-0.489
		c-8.127,3.967-36.604,22.643-52.661,5.944c-16.64-18.959,1.131-54.355,17.024-74.742c26.085-33.136,56.562-48.067,62.578-54.357
		c-1.788-1.391-3.729-1.345-5.41,0.076c-100.81,62.905-100.221,142.364-55.075,139.261c8.787-0.397,16.917-3.927,24.97-7.091
		c-60.115,80.382-39.629,132.907-3.499,118.31c16.81-6.968,29.31-20.798,41.123-34.139c-0.428-0.81-1.268-2.46-1.681-3.27
		C1310.924,1241.745,1284.153,1274.687,1262.745,1267.746z"/>
	<path d="M393.986,1055.729c13.203-10.621,26.789-20.737,39.916-31.465c-0.703-0.565-2.109-1.681-2.812-2.246
		c-50.432,39.049-48.499,37.146-48.229,40.756C387.277,1061.719,390.44,1058.296,393.986,1055.729z"/>
	<path d="M1300.598,1070.109c1.635,2.308,3.27,2.43,4.921,0.382c11.66-10.712,24.527-20.004,37.012-29.707
		c-0.214-0.795-0.642-2.399-0.856-3.194C1327.081,1047.186,1313.45,1058.281,1300.598,1070.109z"/>
	<path d="M953.843,1054.139c-0.581-0.688-1.712-2.063-2.292-2.751c-16.814,18.828-21.202,16.707-21.379,22.051
		c2.155-0.596,4.447-1.085,6.189-2.598C942.855,1066.028,948.846,1060.512,953.843,1054.139z"/>
	<path d="M926.015,1063.675c-0.474-0.718-1.437-2.155-1.91-2.888c-6.663,6.449-13.234,13.096-21.073,18.124
		c-1.941,0.902-0.81,3.698,1.207,3.591C912.506,1077.52,919.306,1070.536,926.015,1063.675z"/>
	<path d="M1144.985,1137.119c0.596,0.626,1.788,1.88,2.399,2.506c16.229-24.405,37.134-45.631,61.142-62.441
		c1.91-1.131,3.133-2.903,3.5-5.089C1205.332,1071.81,1166.182,1103.547,1144.985,1137.119z"/>
	<path d="M76.372,1201.087c5.563,0.428,9.169-5.15,13.708-7.625c52.477-37.868,107.094-72.802,163.804-103.976
		c-0.443-0.795-1.329-2.384-1.773-3.163C176.937,1127.524,77.417,1194.272,76.372,1201.087z"/>
	<path d="M1257.244,1130.945c7.381-14.212,16.963-27.11,26.957-39.579c-0.81-0.428-2.43-1.284-3.224-1.712
		c-10.132,12.302-19.484,25.306-26.865,39.457C1254.891,1129.569,1256.465,1130.486,1257.244,1130.945z"/>
	<path d="M922.684,1120.263c0.015,0.825,0.046,2.506,0.061,3.331c30.563-5.794,53.876-17.308,60.164-23.381
		c-0.076-0.764-0.214-2.292-0.29-3.056C965.473,1105.966,965.049,1109.606,922.684,1120.263z"/>
	<path d="M328.504,1102.552c-5.425,2.017-9.597,6.174-14.227,9.459c-69.226,52.019-139.857,102.479-214.768,146.016
		c-2.063,0.886-2.781,2.506-2.185,4.844c6.235-2.414,11.706-6.296,17.497-9.551c73.291-43.812,142.654-93.829,210.81-145.191
		C327.694,1106.907,328.809,1104.981,328.504,1102.552z"/>
	<path d="M311.923,1133.359c0.642,0.015,1.91,0.031,2.537,0.046c1.085-4.355,1.452-8.833,1.803-13.28
		c-0.886,0.183-2.644,0.535-3.53,0.718C312.321,1124.985,311.159,1129.172,311.923,1133.359z"/>
	<path d="M515.536,1125.245c1.712-1.284,2.476-3.224,2.506-5.287c-1.62,0.321-3.087,0.963-4.371,1.926
		c-67.471,63.22-160.104,141.691-242.076,201.106c-18.216,13.448-37.287,25.75-55.839,38.693c0.565,0.581,1.696,1.757,2.262,2.353
		C313.396,1302.759,432.182,1202.772,515.536,1125.245z"/>
	<path d="M1174.83,1222.558c-0.718,0.122-2.124,0.382-2.827,0.504c-2.476,11.018-1.513,23.029,2.353,33.65
		c0.749,0.351,2.231,1.039,2.98,1.391c0-4.875-1.91-9.429-2.506-14.197C1173.761,1236.816,1174.601,1229.664,1174.83,1222.558z"/>
	<path d="M1186.49,1223.582c0.458,6.724,1.329,13.433,2.644,20.05c0.84,0.153,2.491,0.443,3.331,0.581
		c-0.657-6.678-1.513-13.356-2.72-19.943C1188.935,1224.101,1187.3,1223.75,1186.49,1223.582z"/>
	<path d="M1060.279,1229.969c-16.596,17.391-31.801,36.982-39.809,59.889c2.292,0.749,3.775,0.077,4.462-2.032
		c8.802-21.578,23.274-40.313,39.503-56.832c1.712-1.589,2.949-3.576,3.836-5.715
		C1064.635,1224.392,1062.602,1227.891,1060.279,1229.969z"/>
	<path d="M331.316,1229.969c-0.902,0.077-2.72,0.245-3.637,0.321c-0.947,6.113-2.323,12.149-2.903,18.338
		c0.81-0.168,2.46-0.489,3.27-0.642C329.604,1242.073,330.322,1235.99,331.316,1229.969z"/>
	<path d="M673.746,1250.508c0.244,11.66,1.207,23.304,1.941,34.949c0.871,0.199,2.613,0.596,3.484,0.81
		c-0.779-11.767-1.009-23.58-2.323-35.27C676.069,1250.875,674.526,1250.63,673.746,1250.508z"/>
	<path d="M469.049,1326.947c-1.956-18.674-4.065-37.333-6.372-55.946c-0.84-0.199-2.552-0.596-3.393-0.795
		c1.819,18.537,3.973,37.073,6.22,55.564C466.39,1326.06,468.163,1326.656,469.049,1326.947z"/>
	<path d="M558.828,1323.325h3.454c-0.046-15.007,0.031-30.028-0.031-45.035c-0.825,0.183-2.445,0.535-3.27,0.703
		C558.553,1293.755,558.92,1308.548,558.828,1323.325z"/>
	<path d="M667.603,1281.53c1.085,12.928,1.528,25.933,3.01,38.815c0.825,0.153,2.491,0.458,3.316,0.611
		c-1.039-12.959-1.406-25.994-2.98-38.892C670.124,1281.927,668.443,1281.667,667.603,1281.53z"/>
	<path d="M1220.217,1325.678c-2.201,2.674-6.678,4.493-5.669,8.619c8.982-3.344,29.397-27.414,38.861-49.329
		c-0.825-0.061-2.46-0.199-3.286-0.275C1241.993,1299.562,1232.824,1314.141,1220.217,1325.678z"/>
	<path d="M1160.267,1296.383c-12.057,14.365-20.493,31.327-27.92,48.427c0.81,0.214,2.43,0.611,3.24,0.825
		c7.641-15.526,14.823-31.572,26.009-44.974c2.307-2.949,5.501-5.486,6.189-9.368
		C1164.255,1290.928,1162.376,1294.183,1160.267,1296.383z"/>
	<path d="M653.147,1302.71c0.413,12.561,0.52,25.153,1.192,37.7c0.841,0.229,2.537,0.688,3.377,0.902
		c-0.565-12.623-0.336-25.276-1.268-37.868C655.622,1303.26,653.972,1302.893,653.147,1302.71z"/>
	<path d="M545.014,1356.349c-0.306-13.631-1.299-27.232-1.467-40.848c-0.902,0-2.705,0.015-3.606,0.015
		c0.26,10.789,0.963,21.547,1.192,32.336C541.484,1351.137,540.215,1356.196,545.014,1356.349z"/>
	<path d="M1291.582,1398.052c0-0.871-0.015-2.583-0.015-3.454c-9.429,0.107-19.347,2.216-26.85,8.222
		c0.107,0.749,0.321,2.246,0.413,2.995C1273.412,1401.704,1282.107,1397.792,1291.582,1398.052z"/>
	<path d="M1323.551,1561.611c0.932,0.107,2.781,0.321,3.698,0.428c-0.749-7.839,1.818-15.542,6.892-21.501
		c-0.733-0.504-2.2-1.498-2.934-1.987C1325.522,1544.817,1323.154,1553.252,1323.551,1561.611z"/>
</g>
</svg>
